<svg xmlns="http://www.w3.org/2000/svg" xmlns:xlink="http://www.w3.org/1999/xlink" viewBox="0 0 57.08 109.18">
  <defs>
    <style>
      .cls-1 {
        fill: none;
      }

      .cls-2 {
        fill: #0070ae;
      }

      .cls-3 {
        fill: #f6822a;
      }

      .cls-4 {
        clip-path: url(#clip-path);
      }

      .cls-5 {
        fill: #006cb3;
      }
    </style>
    <clipPath id="clip-path">
      <path id="Path_2304" data-name="Path 2304" class="cls-1" d="M0-177.974H57.08v109.18H0Z" transform="translate(0 177.974)"/>
    </clipPath>
  </defs>
  <g id="Group_2020" data-name="Group 2020" transform="translate(0 177.974)">
    <g id="Group_2011" data-name="Group 2011" transform="translate(3.896 -177.974)">
      <path id="Path_2295" data-name="Path 2295" class="cls-2" d="M0,0,17.206,16.568H53.121V0Z"/>
    </g>
    <g id="Group_2012" data-name="Group 2012" transform="translate(2.011 -177.974)">
      <path id="Path_2296" data-name="Path 2296" class="cls-3" d="M-.024-14.677l16.956,16.6L29.031-9.8-.065-37.971Z" transform="translate(0.065 37.971)"/>
    </g>
    <g id="Group_2013" data-name="Group 2013" transform="translate(1.038 -117.475)">
      <path id="Path_2297" data-name="Path 2297" class="cls-3" d="M0-.029V16.492H56.042V-.076Z" transform="translate(0 0.076)"/>
    </g>
    <g id="Group_2014" data-name="Group 2014" transform="translate(1.381 -148.267)">
      <path id="Path_2298" data-name="Path 2298" class="cls-2" d="M-17.393-13.283-26.214-4.9H-47.462l30.03-29.465Z" transform="translate(47.462 34.365)"/>
    </g>
    <g id="Group_2019" data-name="Group 2019" class="cls-4" transform="translate(0 -177.974)">
      <g id="Group_2015" data-name="Group 2015" transform="translate(0 92.929)">
        <path id="Path_2299" data-name="Path 2299" class="cls-5" d="M-4-1.289-6.038-.239q-.482-.954-1.194-.955a.834.834,0,0,0-.58.218.717.717,0,0,0-.241.556q0,.594,1.424,1.177A8.547,8.547,0,0,1-3.991,2.262a2.529,2.529,0,0,1,.679,1.855,3.208,3.208,0,0,1-1.138,2.5,3.952,3.952,0,0,1-2.672.953,3.873,3.873,0,0,1-3.8-2.534l2.1-.944a4.381,4.381,0,0,0,.668.944,1.547,1.547,0,0,0,1.073.4q1.249,0,1.248-1.1,0-.636-.964-1.188c-.248-.12-.5-.237-.744-.35s-.5-.229-.755-.349A4.637,4.637,0,0,1-9.8,1.435a2.454,2.454,0,0,1-.558-1.664,2.9,2.9,0,0,1,.952-2.226,3.4,3.4,0,0,1,2.365-.88A3.225,3.225,0,0,1-4-1.289" transform="translate(10.921 3.335)"/>
      </g>
      <path id="Path_2300" data-name="Path 2300" class="cls-5" d="M17.749-19.373H15.286V-29.7h2.463Zm0-10.325-2.836-4.294a1.456,1.456,0,0,1,.471-1.082,1.565,1.565,0,0,1,1.128-.456,1.577,1.577,0,0,1,1.138.456,1.443,1.443,0,0,1,.471,1.092,1.478,1.478,0,0,1-.471,1.1,1.54,1.54,0,0,1-1.127.456,1.577,1.577,0,0,1-1.139-.456,1.49,1.49,0,0,1-.471-1.113" transform="translate(-5.465 122.913)"/>
      <g id="Group_2016" data-name="Group 2016" transform="translate(14.901 92.929)">
        <path id="Path_2301" data-name="Path 2301" class="cls-5" d="M-4.888-3.447A3.41,3.41,0,0,0-5.72-5.853a2.79,2.79,0,0,0-2.157-.923,2.686,2.686,0,0,0-2.212,1.007,3.576,3.576,0,0,0-.734,2.332,3.542,3.542,0,0,0,.734,2.311,2.691,2.691,0,0,0,2.212.986,2.74,2.74,0,0,0,2.233-1,3.474,3.474,0,0,0,.755-2.311m2.365,4.9q0,.732-.049,1.288a8.737,8.737,0,0,1-.137.981,4.311,4.311,0,0,1-1.03,2A5.065,5.065,0,0,1-7.713,7.334a5.415,5.415,0,0,1-3.514-1.113,4.5,4.5,0,0,1-1.643-3.17H-10.4a2.671,2.671,0,0,0,.471,1.177,2.681,2.681,0,0,0,2.233.965q2.7,0,2.7-3.212V.539A4.669,4.669,0,0,1-8.37,1.991,4.608,4.608,0,0,1-11.939.465a5.544,5.544,0,0,1-1.4-3.87,5.834,5.834,0,0,1,1.3-3.837,4.586,4.586,0,0,1,3.7-1.675,4.362,4.362,0,0,1,3.35,1.452V-8.631h2.463Z" transform="translate(13.34 8.917)"/>
      </g>
      <g id="Group_2017" data-name="Group 2017" transform="translate(28.826 92.929)">
        <path id="Path_2302" data-name="Path 2302" class="cls-5" d="M0-.181H2.463V.773A5.1,5.1,0,0,1,3.678-.2,3.03,3.03,0,0,1,5.025-.467,3.294,3.294,0,0,1,7.883,1.059,3.738,3.738,0,0,1,11.024-.467q3.6,0,3.6,4.23v6.382H12.153V4.409a4.3,4.3,0,0,0-.373-2.1,1.363,1.363,0,0,0-1.259-.626,1.62,1.62,0,0,0-1.483.742,4.649,4.649,0,0,0-.466,2.385v5.332H6.1v-5.7q0-2.756-1.642-2.756a1.661,1.661,0,0,0-1.516.753,4.569,4.569,0,0,0-.476,2.375v5.332H0Z" transform="translate(0 0.467)"/>
      </g>
      <g id="Group_2018" data-name="Group 2018" transform="translate(46.059 92.929)">
        <path id="Path_2303" data-name="Path 2303" class="cls-5" d="M-1.457-3.413A3.523,3.523,0,0,0-.636-1a2.726,2.726,0,0,0,2.124.944A2.871,2.871,0,0,0,3.7-.964a3.461,3.461,0,0,0,.843-2.4,3.463,3.463,0,0,0-.843-2.4,2.829,2.829,0,0,0-2.19-.922,2.765,2.765,0,0,0-2.124.932,3.374,3.374,0,0,0-.843,2.332M4.39-8.544H6.864V1.782H4.39V.7A4.8,4.8,0,0,1,1.116,2.078,4.789,4.789,0,0,1-2.541.531,5.645,5.645,0,0,1-3.975-3.413a5.475,5.475,0,0,1,1.434-3.87A4.692,4.692,0,0,1,1.05-8.83,4.6,4.6,0,0,1,4.39-7.346Z" transform="translate(3.975 8.83)"/>
      </g>
    </g>
  </g>
</svg>
