<svg xmlns="http://www.w3.org/2000/svg" xmlns:xlink="http://www.w3.org/1999/xlink" viewBox="0 0 100.198 37.573">
  <defs>
    <style>
      .cls-1 {
        fill: none;
      }

      .cls-2 {
        fill: #fff;
      }

      .cls-3 {
        fill: #f48228;
      }

      .cls-4 {
        clip-path: url(#clip-path);
      }
    </style>
    <clipPath id="clip-path">
      <path id="Path_2318" data-name="Path 2318" class="cls-1" d="M0-35.529H57.99v22.941H0Z" transform="translate(0 35.529)"/>
    </clipPath>
  </defs>
  <g id="Group_2040" data-name="Group 2040" transform="translate(-58.792 -28.947)">
    <g id="Group_1219" data-name="Group 1219" transform="translate(-11 -2)">
      <g id="Group_120" data-name="Group 120" transform="translate(69.792 165.894)">
        <g id="Group_116" data-name="Group 116" transform="translate(0.971 -134.947)">
          <path id="Path_117" data-name="Path 117" class="cls-2" d="M0,0,8.122,8.077H25.077V0Z"/>
        </g>
        <g id="Group_117" data-name="Group 117" transform="translate(0.081 -134.947)">
          <path id="Path_118" data-name="Path 118" class="cls-3" d="M-.05-29.431,7.955-21.34l5.711-5.712L-.069-40.788Z" transform="translate(0.069 40.788)"/>
        </g>
        <g id="Group_118" data-name="Group 118" transform="translate(0 -105.451)">
          <path id="Path_119" data-name="Path 119" class="cls-3" d="M0-.059V8H26.078V-.082Z" transform="translate(0 0.082)"/>
        </g>
        <g id="Group_119" data-name="Group 119" transform="translate(0.162 -120.464)">
          <path id="Path_120" data-name="Path 120" class="cls-2" d="M0-37.229H9.652l4.164-4.087L13.8-51.594Z" transform="translate(0 51.594)"/>
        </g>
      </g>
    </g>
    <g id="Group_2039" data-name="Group 2039" transform="translate(101 72.058)">
      <g id="Group_2038" data-name="Group 2038" class="cls-4" transform="translate(0 -35.529)">
        <g id="Group_2034" data-name="Group 2034" transform="translate(0 5.836)">
          <path id="Path_2313" data-name="Path 2313" class="cls-2" d="M-3.869-1.182l-2.075,1.1q-.491-1-1.217-1a.835.835,0,0,0-.591.229A.766.766,0,0,0-8-.267Q-8,.359-6.547.972A8.653,8.653,0,0,1-3.858,2.556a2.713,2.713,0,0,1,.692,1.953,3.424,3.424,0,0,1-1.16,2.634,3.952,3.952,0,0,1-2.723,1A3.948,3.948,0,0,1-10.921,5.48l2.142-.993A4.609,4.609,0,0,0-8.1,5.48,1.549,1.549,0,0,0-7,5.9q1.273,0,1.272-1.161,0-.669-.982-1.25c-.252-.126-.506-.249-.759-.368s-.509-.241-.77-.367a4.725,4.725,0,0,1-1.54-1.072,2.637,2.637,0,0,1-.569-1.751,3.1,3.1,0,0,1,.97-2.343,3.4,3.4,0,0,1,2.41-.927,3.288,3.288,0,0,1,3.1,2.153" transform="translate(10.921 3.335)"/>
        </g>
        <path id="Path_2314" data-name="Path 2314" class="cls-2" d="M17.8-18.524H15.293V-29.392H17.8Zm0-10.868-2.89-4.519a1.556,1.556,0,0,1,.48-1.138,1.569,1.569,0,0,1,1.149-.48,1.581,1.581,0,0,1,1.16.48,1.542,1.542,0,0,1,.48,1.149,1.58,1.58,0,0,1-.48,1.16,1.544,1.544,0,0,1-1.149.48,1.581,1.581,0,0,1-1.161-.48,1.594,1.594,0,0,1-.48-1.171" transform="translate(-5.284 35.529)"/>
        <g id="Group_2035" data-name="Group 2035" transform="translate(15.187 5.836)">
          <path id="Path_2315" data-name="Path 2315" class="cls-2" d="M-4.726-3.159a3.662,3.662,0,0,0-.848-2.533,2.8,2.8,0,0,0-2.2-.971A2.7,2.7,0,0,0-10.026-5.6a3.848,3.848,0,0,0-.748,2.455,3.81,3.81,0,0,0,.748,2.432A2.707,2.707,0,0,0-7.772.322,2.756,2.756,0,0,0-5.5-.727a3.735,3.735,0,0,0,.77-2.432M-2.316,2q0,.77-.05,1.356a9.479,9.479,0,0,1-.139,1.032A4.591,4.591,0,0,1-3.555,6.492a5.082,5.082,0,0,1-4.05,1.7,5.4,5.4,0,0,1-3.582-1.171,4.791,4.791,0,0,1-1.674-3.336h2.522a2.863,2.863,0,0,0,.48,1.238A2.7,2.7,0,0,0-7.583,5.935q2.757,0,2.757-3.381V1.036A4.687,4.687,0,0,1-8.274,2.564,4.628,4.628,0,0,1-11.912.958,5.95,5.95,0,0,1-13.34-3.115a6.27,6.27,0,0,1,1.328-4.039A4.614,4.614,0,0,1-8.241-8.917,4.382,4.382,0,0,1-4.826-7.389V-8.615h2.511Z" transform="translate(13.34 8.917)"/>
        </g>
        <g id="Group_2036" data-name="Group 2036" transform="translate(29.38 5.836)">
          <path id="Path_2316" data-name="Path 2316" class="cls-2" d="M0-.165H2.511v1A5.23,5.23,0,0,1,3.749-.188,3,3,0,0,1,5.122-.467,3.331,3.331,0,0,1,8.034,1.14a3.769,3.769,0,0,1,3.2-1.607q3.671,0,3.671,4.452V10.7H12.386V4.666a4.659,4.659,0,0,0-.38-2.209A1.376,1.376,0,0,0,10.723,1.8a1.636,1.636,0,0,0-1.512.781A5.028,5.028,0,0,0,8.736,5.09V10.7H6.215v-6q0-2.9-1.674-2.9A1.677,1.677,0,0,0,3,2.59a4.941,4.941,0,0,0-.486,2.5V10.7H0Z" transform="translate(0 0.467)"/>
        </g>
        <g id="Group_2037" data-name="Group 2037" transform="translate(46.943 5.836)">
          <path id="Path_2317" data-name="Path 2317" class="cls-2" d="M-1.408-3.128A3.785,3.785,0,0,0-.571-.584,2.74,2.74,0,0,0,1.593.409a2.881,2.881,0,0,0,2.254-.96,3.716,3.716,0,0,0,.859-2.521,3.719,3.719,0,0,0-.859-2.522,2.841,2.841,0,0,0-2.232-.97A2.778,2.778,0,0,0-.55-5.583a3.621,3.621,0,0,0-.859,2.455m5.959-5.4H7.072V2.339H4.55V1.2a4.815,4.815,0,0,1-3.336,1.45A4.808,4.808,0,0,1-2.513,1.023,6.058,6.058,0,0,1-3.975-3.128,5.873,5.873,0,0,1-2.513-7.2,4.713,4.713,0,0,1,1.147-8.83a4.624,4.624,0,0,1,3.4,1.562Z" transform="translate(3.975 8.83)"/>
        </g>
      </g>
    </g>
  </g>
</svg>
