<svg xmlns="http://www.w3.org/2000/svg" xmlns:xlink="http://www.w3.org/1999/xlink" viewBox="0 0 11.249 11.977">
  <defs>
    <style>
      .cls-1 {
        fill: #fff;
      }

      .cls-2 {
        clip-path: url(#clip-path);
      }
    </style>
    <clipPath id="clip-path">
      <path id="Path_2555" data-name="Path 2555" class="cls-1" d="M0-383.023H11.249v11.977H0Z" transform="translate(0 383.023)"/>
    </clipPath>
  </defs>
  <g id="Group_2450" data-name="Group 2450" transform="translate(0 383.023)">
    <g id="Group_2449" data-name="Group 2449" class="cls-2" transform="translate(0 -383.023)">
      <g id="Group_2447" data-name="Group 2447" transform="translate(8.651 6.808)">
        <path id="Path_2553" data-name="Path 2553" class="cls-1" d="M-50.475,0V.51a1.075,1.075,0,0,1,.5.2,1.557,1.557,0,0,1,.372.471l-.508.284a.679.679,0,0,0-.6-.416.548.548,0,0,0-.38.135.436.436,0,0,0-.151.338.416.416,0,0,0,.122.307,1.771,1.771,0,0,0,.484.284,4.855,4.855,0,0,1,.52.269,1.391,1.391,0,0,1,.31.243,1.09,1.09,0,0,1,.294.768,1.229,1.229,0,0,1-.265.781,1.284,1.284,0,0,1-.7.453v.539h-.456V4.646a1.384,1.384,0,0,1-.778-.351,1.678,1.678,0,0,1-.4-.828l.573-.12a1.34,1.34,0,0,0,.286.565.672.672,0,0,0,.471.161.665.665,0,0,0,.479-.185.624.624,0,0,0,.19-.471A.554.554,0,0,0-50.264,3a1.472,1.472,0,0,0-.238-.17,4.107,4.107,0,0,0-.4-.207,1.945,1.945,0,0,1-.664-.416.987.987,0,0,1-.252-.679.994.994,0,0,1,.06-.349.953.953,0,0,1,.173-.293,1.076,1.076,0,0,1,.28-.228A1.505,1.505,0,0,1-50.93.51V0Z" transform="translate(52.104)"/>
      </g>
      <g id="Group_2448" data-name="Group 2448" transform="translate(0 0)">
        <path id="Path_2554" data-name="Path 2554" class="cls-1" d="M-340.583-67.812l-1.475,1.475a1.714,1.714,0,0,1-.483.95,1.722,1.722,0,0,1-2.435,0,1.722,1.722,0,0,1,0-2.435,1.714,1.714,0,0,1,1.013-.492l1.451-1.451a3.4,3.4,0,0,0-3.648.759,3.4,3.4,0,0,0-.549,4.085l-4.868,4.868,1.267,1.267,4.868-4.868a3.4,3.4,0,0,0,4.085-.549,3.4,3.4,0,0,0,.774-3.609" transform="translate(351.577 70.001)"/>
      </g>
    </g>
  </g>
</svg>
