<svg xmlns="http://www.w3.org/2000/svg" xmlns:xlink="http://www.w3.org/1999/xlink" viewBox="0 0 8.562 20.043">
  <defs>
    <style>
      .cls-1, .cls-3 {
        fill: #fff;
      }

      .cls-2 {
        clip-path: url(#clip-path);
      }

      .cls-3 {
        fill-rule: evenodd;
      }
    </style>
    <clipPath id="clip-path">
      <path id="Path_2557" data-name="Path 2557" class="cls-1" d="M0-419.271H8.562v20.043H0Z" transform="translate(0 419.271)"/>
    </clipPath>
  </defs>
  <g id="Group_2453" data-name="Group 2453" transform="translate(0 419.271)">
    <g id="Group_2452" data-name="Group 2452" class="cls-2" transform="translate(0 -419.271)">
      <g id="Group_2451" data-name="Group 2451" transform="translate(0 0)">
        <path id="Path_2556" data-name="Path 2556" class="cls-3" d="M-132.638-122.374l-1.268-.02v5.893s.258,2.035-1.11,2.015-1.11-2.015-1.11-2.015v-8.251s-.119-2.438,2.061-2.438,2.061,2.444,2.061,2.444v11.171s.277,3.851-3.032,3.851-2.993-3.851-2.993-3.851v-8.482H-139.3v9.731a4.071,4.071,0,0,0,4.281,3.851,4.071,4.071,0,0,0,4.281-3.851V-125.7a3.061,3.061,0,0,0-3.33-2.814,3.061,3.061,0,0,0-3.33,2.814v9.817a2.33,2.33,0,0,0,2.4,2.673,2.293,2.293,0,0,0,2.358-2.673Z" transform="translate(139.297 128.518)"/>
      </g>
    </g>
  </g>
</svg>
