<svg xmlns="http://www.w3.org/2000/svg" viewBox="0 0 21.319 21.32">
  <defs>
    <style>
      .cls-1 {
        fill: #fff;
      }
    </style>
  </defs>
  <path id="Path_2666" data-name="Path 2666" class="cls-1" d="M17.722,6.929l1.466-2.8L17.322,2.265l-2.8,1.466A4.773,4.773,0,0,0,13.058,3.2L11.992,0H9.327L8.261,3.065A5.569,5.569,0,0,0,6.929,3.6l-2.8-1.466-2,2L3.6,6.929a5.569,5.569,0,0,0-.533,1.332L0,9.327v2.665l3.065,1.066c.133.533.4.933.533,1.466l-1.466,2.8L4,19.188l2.8-1.466a4.773,4.773,0,0,0,1.466.533L9.327,21.32h2.665l1.066-3.065c.533-.133.933-.4,1.466-.533l2.8,1.466,1.865-1.865-1.466-2.8a4.773,4.773,0,0,0,.533-1.466l3.065-1.066V9.327L18.255,8.261A5.569,5.569,0,0,0,17.722,6.929ZM10.66,14.657a3.926,3.926,0,0,1-4-4,3.926,3.926,0,0,1,4-4,3.926,3.926,0,0,1,4,4A3.926,3.926,0,0,1,10.66,14.657Z"/>
</svg>
