<svg id="Group_2454" data-name="Group 2454" xmlns="http://www.w3.org/2000/svg" viewBox="0 0 29.94 24.091">
  <defs>
    <style>
      .cls-1 {
        fill: #006cb3;
      }

      .cls-2 {
        fill: #f6822a;
      }
    </style>
  </defs>
  <path id="Path_2532" data-name="Path 2532" class="cls-1" d="M84.2-242.8H82V-245h2.2Z" transform="translate(-76.842 253.68)"/>
  <g id="Group_2428" data-name="Group 2428" transform="translate(0 0)">
    <path id="Path_2533" data-name="Path 2533" class="cls-1" d="M-295.186,0V1.573h-9.247V0h-2.2V1.573h-6.919V22.456H-315v1.635h28.557V1.573h-6.542V0Zm2.2,3.963V3.208h4.906V22.456h-23.9V3.208h5.347v.755h2.2V3.208h9.247v.755Z" transform="translate(315)"/>
  </g>
  <path id="Path_2534" data-name="Path 2534" class="cls-1" d="M84.2-191.736H82V-194h2.2Z" transform="translate(-76.842 205.888)"/>
  <path id="Path_2535" data-name="Path 2535" class="cls-1" d="M173.2-242.8H171V-245h2.2Z" transform="translate(-160.244 253.68)"/>
  <path id="Path_2536" data-name="Path 2536" class="cls-1" d="M173.2-191.736H171V-194h2.2Z" transform="translate(-160.244 205.888)"/>
  <path id="Path_2537" data-name="Path 2537" class="cls-1" d="M261.2-242.8H259V-245h2.2Z" transform="translate(-242.709 253.68)"/>
  <path id="Path_2538" data-name="Path 2538" class="cls-1" d="M261.2-191.736H259V-194h2.2Z" transform="translate(-242.709 205.888)"/>
  <path id="Path_2539" data-name="Path 2539" class="cls-1" d="M360.139-242.8H358V-245h2.139Z" transform="translate(-335.481 253.68)"/>
  <path id="Path_2540" data-name="Path 2540" class="cls-1" d="M360.139-191.736H358V-194h2.139Z" transform="translate(-335.481 205.888)"/>
  <path id="Path_2541" data-name="Path 2541" class="cls-1" d="M84.2-141.8H82V-144h2.2Z" transform="translate(-76.842 159.034)"/>
  <path id="Path_2542" data-name="Path 2542" class="cls-1" d="M84.2-89.736H82V-92h2.2Z" transform="translate(-76.842 110.304)"/>
  <path id="Path_2543" data-name="Path 2543" class="cls-1" d="M173.2-141.8H171V-144h2.2Z" transform="translate(-160.244 159.034)"/>
  <path id="Path_2544" data-name="Path 2544" class="cls-1" d="M173.2-89.736H171V-92h2.2Z" transform="translate(-160.244 110.304)"/>
  <path id="Path_2545" data-name="Path 2545" class="cls-1" d="M261.2-141.8H259V-144h2.2Z" transform="translate(-242.709 159.034)"/>
  <path id="Path_2546" data-name="Path 2546" class="cls-1" d="M261.2-89.736H259V-92h2.2Z" transform="translate(-242.709 110.304)"/>
  <path id="Path_2547" data-name="Path 2547" class="cls-1" d="M360.139-141.8H358V-144h2.139Z" transform="translate(-335.481 159.034)"/>
  <path id="Path_2548" data-name="Path 2548" class="cls-1" d="M360.139-89.736H358V-92h2.139Z" transform="translate(-335.481 110.304)"/>
  <path id="Path_2549" data-name="Path 2549" class="cls-2" d="M71-297.427H96.475V-299H71Z" transform="translate(-66.534 304.284)"/>
</svg>
