<svg id="Group_2390" data-name="Group 2390" xmlns="http://www.w3.org/2000/svg" xmlns:xlink="http://www.w3.org/1999/xlink" viewBox="0 0 11.243 11.265">
  <defs>
    <style>
      .cls-1 {
        fill: none;
      }

      .cls-2 {
        fill: #fff;
      }

      .cls-3 {
        clip-path: url(#clip-path);
      }
    </style>
    <clipPath id="clip-path">
      <path id="Path_2497" data-name="Path 2497" class="cls-1" d="M0-361.81H11.243v11.265H0Z" transform="translate(0 361.81)"/>
    </clipPath>
  </defs>
  <g id="Group_2387" data-name="Group 2387" transform="translate(6.62 6.597)">
    <path id="Path_2495" data-name="Path 2495" class="cls-2" d="M0-12.332l.692.805-.3.3,3.17,3.17L4.623-9.117l-3.17-3.17-.268.268L.4-12.728Z" transform="translate(0 12.728)"/>
  </g>
  <g id="Group_2389" data-name="Group 2389" class="cls-3" transform="translate(0 0)">
    <g id="Group_2388" data-name="Group 2388" transform="translate(0 0)">
      <path id="Path_2496" data-name="Path 2496" class="cls-2" d="M-195.714-195.714a3.082,3.082,0,0,1-4.359,0,3.082,3.082,0,0,1,0-4.359,3.082,3.082,0,0,1,4.359,0,3.082,3.082,0,0,1,0,4.359M-200.8-200.8a4.11,4.11,0,0,0,0,5.812,4.11,4.11,0,0,0,5.812,0,4.11,4.11,0,0,0,0-5.812,4.11,4.11,0,0,0-5.812,0" transform="translate(202.004 202.004)"/>
    </g>
  </g>
</svg>
