<svg xmlns="http://www.w3.org/2000/svg" xmlns:xlink="http://www.w3.org/1999/xlink" viewBox="0 0 11.719 18.749">
  <defs>
    <style>
      .cls-1 {
        fill: none;
      }

      .cls-2 {
        clip-path: url(#clip-path);
      }

      .cls-3 {
        fill: #fff;
      }
    </style>
    <clipPath id="clip-path">
      <path id="Path_2519" data-name="Path 2519" class="cls-1" d="M0-382.375H11.719v18.749H0Z" transform="translate(0 382.375)"/>
    </clipPath>
  </defs>
  <g id="Group_2405" data-name="Group 2405" transform="translate(0 382.375)">
    <g id="Group_2404" data-name="Group 2404" class="cls-2" transform="translate(0 -382.375)">
      <g id="Group_2401" data-name="Group 2401" transform="translate(0 7.03)">
        <path id="Path_2516" data-name="Path 2516" class="cls-3" d="M-112.807-204.458a4.688,4.688,0,0,1-4.688-4.688,4.688,4.688,0,0,1,4.688-4.688,4.688,4.688,0,0,1,4.688,4.688,4.688,4.688,0,0,1-4.688,4.688m.043-10.542a5.859,5.859,0,0,0-5.859,5.859,5.859,5.859,0,0,0,5.859,5.859,5.859,5.859,0,0,0,5.859-5.859A5.859,5.859,0,0,0-112.764-215" transform="translate(118.623 215)"/>
      </g>
      <g id="Group_2402" data-name="Group 2402" transform="translate(2.255 0)">
        <path id="Path_2517" data-name="Path 2517" class="cls-3" d="M-68.736-23.477a2.472,2.472,0,0,1,2.34,2.093l.033,4.527,1.144.588V-21.69c0-1.625-1.669-3-3.585-3a3.239,3.239,0,0,0-3.473,2.939l0,.291v5.541l1.3-.886L-71-21.593a2.219,2.219,0,0,1,2.261-1.883" transform="translate(72.28 24.687)"/>
      </g>
      <g id="Group_2403" data-name="Group 2403" transform="translate(3.987 9.447)">
        <path id="Path_2518" data-name="Path 2518" class="cls-3" d="M-42.011,0V.678a1.428,1.428,0,0,1,.668.27,2.07,2.07,0,0,1,.495.626l-.675.377a.9.9,0,0,0-.8-.554.729.729,0,0,0-.505.18.579.579,0,0,0-.2.45.554.554,0,0,0,.163.408,2.354,2.354,0,0,0,.644.377,6.458,6.458,0,0,1,.692.358,1.847,1.847,0,0,1,.412.324,1.449,1.449,0,0,1,.391,1.021,1.634,1.634,0,0,1-.353,1.038,1.708,1.708,0,0,1-.934.6v.716h-.606v-.7a1.841,1.841,0,0,1-1.035-.467,2.23,2.23,0,0,1-.526-1.1l.761-.159a1.781,1.781,0,0,0,.381.751.894.894,0,0,0,.626.215.884.884,0,0,0,.637-.246.829.829,0,0,0,.253-.626.737.737,0,0,0-.211-.55,1.958,1.958,0,0,0-.317-.227,5.44,5.44,0,0,0-.535-.275,2.586,2.586,0,0,1-.882-.554,1.312,1.312,0,0,1-.336-.9,1.321,1.321,0,0,1,.08-.464,1.266,1.266,0,0,1,.23-.389,1.429,1.429,0,0,1,.372-.3,2,2,0,0,1,.5-.2V0Z" transform="translate(44.177)"/>
      </g>
    </g>
  </g>
</svg>
