<svg xmlns="http://www.w3.org/2000/svg" xmlns:xlink="http://www.w3.org/1999/xlink" viewBox="0 0 27.155 27.042">
  <defs>
    <style>
      .cls-1 {
        fill: none;
      }

      .cls-2 {
        fill: #fff;
      }

      .cls-3 {
        clip-path: url(#clip-path);
      }
    </style>
    <clipPath id="clip-path">
      <path id="Path_2511" data-name="Path 2511" class="cls-1" d="M0-432.2H27.155v27.043H0Z" transform="translate(0 432.199)"/>
    </clipPath>
  </defs>
  <g id="Group_2431" data-name="Group 2431" transform="translate(9972.655 -5688.538)">
    <path id="Path_2498" data-name="Path 2498" class="cls-2" d="M0-430.7H21.274v-1.5H0Z" transform="translate(-9972.655 6120.737)"/>
    <g id="Group_2391" data-name="Group 2391" transform="translate(-9971.028 5714.067)">
      <path id="Path_2499" data-name="Path 2499" class="cls-2" d="M0,0V1.5H21.9V.188L21.3,0Z"/>
    </g>
    <path id="Path_2500" data-name="Path 2500" class="cls-2" d="M317.5-417.809H316V-431.2h1.5Z" transform="translate(-10268.883 6119.8)"/>
    <path id="Path_2501" data-name="Path 2501" class="cls-2" d="M27-404.231h1.5V-431.2H27Z" transform="translate(-9997.966 6119.8)"/>
    <g id="Group_2392" data-name="Group 2392" transform="translate(-9951.255 5702.56)">
      <path id="Path_2502" data-name="Path 2502" class="cls-2" d="M-47.726-31.817l-2.124-2.124-1.062,1.062,2.124,2.124-2.124,2.124,1.062,1.062,2.124-2.124,1.062-1.062Z" transform="translate(50.912 33.941)"/>
    </g>
    <path id="Path_2503" data-name="Path 2503" class="cls-2" d="M243-166.7h8.322v-1.5H243Z" transform="translate(-10200.451 5873.256)"/>
    <path id="Path_2504" data-name="Path 2504" class="cls-2" d="M74-382.7H87.452v-1.5H74Z" transform="translate(-10042.025 6075.741)"/>
    <path id="Path_2505" data-name="Path 2505" class="cls-2" d="M74-334.7H87.452v-1.5H74Z" transform="translate(-10042.025 6030.744)"/>
    <path id="Path_2506" data-name="Path 2506" class="cls-2" d="M75-287.7H88.452v-1.5H75Z" transform="translate(-10042.963 5986.685)"/>
    <path id="Path_2507" data-name="Path 2507" class="cls-2" d="M75-238.7H88.452v-1.5H75Z" transform="translate(-10042.963 5940.75)"/>
    <path id="Path_2508" data-name="Path 2508" class="cls-2" d="M75-190.7h7.508v-1.5H75Z" transform="translate(-10042.963 5895.754)"/>
    <g id="Group_2394" data-name="Group 2394" class="cls-3" transform="translate(-9972.655 5688.538)">
      <g id="Group_2393" data-name="Group 2393" transform="translate(19.709 21.023)">
        <path id="Path_2509" data-name="Path 2509" class="cls-2" d="M-90.083-34.685a2.141,2.141,0,0,1-2.241,2.253,2.157,2.157,0,0,1-2.27-2.253V-37h-1.5v2.315h.016a3.752,3.752,0,0,0,3.714,3.7,3.752,3.752,0,0,0,3.714-3.7Z" transform="translate(96.096 37)"/>
      </g>
      <path id="Path_2510" data-name="Path 2510" class="cls-2" d="M340.257-82.2H334v1.439h6.257Z" transform="translate(-313.102 104.098)"/>
    </g>
  </g>
</svg>
