<svg id="Group_2372" data-name="Group 2372" xmlns="http://www.w3.org/2000/svg" xmlns:xlink="http://www.w3.org/1999/xlink" viewBox="0 0 11.81 13.317">
  <defs>
    <style>
      .cls-1 {
        fill: none;
      }

      .cls-2 {
        fill: #fff;
      }

      .cls-3 {
        clip-path: url(#clip-path);
      }
    </style>
    <clipPath id="clip-path">
      <path id="Path_2468" data-name="Path 2468" class="cls-1" d="M0-433H11.81v13.316H0Z" transform="translate(0 433)"/>
    </clipPath>
  </defs>
  <path id="Path_2463" data-name="Path 2463" class="cls-2" d="M0-23.262H11.81V-24H0Z" transform="translate(0 36.578)"/>
  <path id="Path_2464" data-name="Path 2464" class="cls-2" d="M176-313h.984v5.413H176Z" transform="translate(-170.587 316.69)"/>
  <g id="Group_2368" data-name="Group 2368" transform="translate(0.031 0)">
    <path id="Path_2465" data-name="Path 2465" class="cls-2" d="M-173.495,0-179,12.548h.738L-172.757,0Z" transform="translate(179)"/>
  </g>
  <g id="Group_2369" data-name="Group 2369" transform="translate(5.567 0)">
    <path id="Path_2466" data-name="Path 2466" class="cls-2" d="M0,0,5.505,12.548h.738L.738,0Z"/>
  </g>
  <g id="Group_2371" data-name="Group 2371" class="cls-3" transform="translate(0 0)">
    <g id="Group_2370" data-name="Group 2370" transform="translate(5.431 10.103)">
      <path id="Path_2467" data-name="Path 2467" class="cls-2" d="M-30.995-15.5a.492.492,0,0,1-.492.492.492.492,0,0,1-.492-.492.492.492,0,0,1,.492-.492.492.492,0,0,1,.492.492" transform="translate(31.978 15.989)"/>
    </g>
  </g>
</svg>
