<svg id="Grupo_2669" data-name="Grupo 2669" xmlns="http://www.w3.org/2000/svg" xmlns:xlink="http://www.w3.org/1999/xlink" width="32.852" height="32.973" viewBox="0 0 32.852 32.973">
  <defs>
    <clipPath id="clip-path">
      <path id="Caminho_2227" data-name="Caminho 2227" d="M0-28.1H32.69V4.869H0Z" transform="translate(0 28.104)" fill="#006cb3"/>
    </clipPath>
    <clipPath id="clip-path-2">
      <path id="Caminho_2238" data-name="Caminho 2238" d="M0-28.1H31V4.737H0Z" transform="translate(0 28.104)" fill="#006cb3" stroke="#707070" stroke-width="2"/>
    </clipPath>
  </defs>
  <g id="Grupo_2665" data-name="Grupo 2665">
    <g id="Grupo_1876" data-name="Grupo 1876" transform="translate(0 0)">
      <g id="Grupo_1857" data-name="Grupo 1857" transform="translate(0)" clip-path="url(#clip-path)">
        <g id="Grupo_1854" data-name="Grupo 1854" transform="translate(5.824 30.168)">
          <path id="Caminho_2224" data-name="Caminho 2224" d="M.185,0-21.707.144" transform="translate(21.707)" fill="#006cb3" stroke="#006cb3" stroke-width="2"/>
        </g>
        <g id="Grupo_1855" data-name="Grupo 1855" transform="translate(3.8 3.45)">
          <path id="Caminho_2225" data-name="Caminho 2225" d="M1.7,0H-21" transform="translate(21)" fill="#006cb3" stroke="#006cb3" stroke-width="2"/>
        </g>
        <g id="Grupo_1856" data-name="Grupo 1856" transform="translate(6.321 2.954)">
          <path id="Caminho_2226" data-name="Caminho 2226" d="M0,0V28.35" transform="translate(0)" fill="#006cb3" stroke="#006cb3" stroke-width="2"/>
        </g>
      </g>
      <g id="Grupo_1868" data-name="Grupo 1868" transform="translate(1.849 0.12)" clip-path="url(#clip-path-2)">
        <g id="Grupo_1864" data-name="Grupo 1864" transform="translate(23.649 27.115)">
          <path id="Caminho_2234" data-name="Caminho 2234" d="M.037,0A1.456,1.456,0,0,1,.079.515C-.115,2-.91,2.933-2.132,2.933A2.347,2.347,0,0,1-4.35.5,2.1,2.1,0,0,1-4.309,0Z" transform="translate(4.35)" fill="#fff" stroke="#006cb3" stroke-width="2"/>
        </g>
        <g id="Grupo_1865" data-name="Grupo 1865" transform="translate(23.634 2.834)">
          <path id="Caminho_2235" data-name="Caminho 2235" d="M0,0V13.875" fill="#006cb3" stroke="#006cb3" stroke-width="2"/>
        </g>
        <g id="Grupo_1866" data-name="Grupo 1866" transform="translate(23.649 24.9)">
          <path id="Caminho_2236" data-name="Caminho 2236" d="M0,0V2.71" transform="translate(0)" fill="#006cb3" stroke="#006cb3" stroke-width="2"/>
        </g>
      </g>
      <g id="icon_chat-room" transform="translate(10.557 12)">
        <path id="União_11" data-name="União 11" d="M6.875,8.938H3.437L4.694,7.563H8.938a.687.687,0,0,0,.687-.688V2.75h.688A.687.687,0,0,1,11,3.437V8.25a.688.688,0,0,1-.688.688H8.938V11ZM2.063,6.188H.688A.688.688,0,0,1,0,5.5V.688A.688.688,0,0,1,.688,0H7.563A.688.688,0,0,1,8.25.688V5.5a.688.688,0,0,1-.688.688H4.125L2.063,8.25Z" fill="#f6822a"/>
      </g>
    </g>
  </g>
</svg>
