<svg id="historico-web-cor" xmlns="http://www.w3.org/2000/svg" xmlns:xlink="http://www.w3.org/1999/xlink" width="32.852" height="32.973" viewBox="0 0 32.852 32.973">
  <defs>
    <clipPath id="clip-path">
      <path id="Caminho_2227" data-name="Caminho 2227" d="M0-28.1H32.69V4.869H0Z" transform="translate(0 28.104)" fill="#006cb3"/>
    </clipPath>
    <clipPath id="clip-path-2">
      <path id="Caminho_2238" data-name="Caminho 2238" d="M0-28.1H31V4.737H0Z" transform="translate(0 28.104)" fill="#006cb3" stroke="#707070" stroke-width="2"/>
    </clipPath>
  </defs>
  <g id="Grupo_1857" data-name="Grupo 1857" transform="translate(0)" clip-path="url(#clip-path)">
    <g id="Grupo_1854" data-name="Grupo 1854" transform="translate(5.824 30.168)">
      <path id="Caminho_2224" data-name="Caminho 2224" d="M.185,0-21.707.144" transform="translate(21.707)" fill="#006cb3" stroke="#006cb3" stroke-width="2"/>
    </g>
    <g id="Grupo_1855" data-name="Grupo 1855" transform="translate(3.8 3.45)">
      <path id="Caminho_2225" data-name="Caminho 2225" d="M1.7,0H-21" transform="translate(21)" fill="#006cb3" stroke="#006cb3" stroke-width="2"/>
    </g>
    <g id="Grupo_1856" data-name="Grupo 1856" transform="translate(6.321 2.954)">
      <path id="Caminho_2226" data-name="Caminho 2226" d="M0,0V28.35" transform="translate(0)" fill="#006cb3" stroke="#006cb3" stroke-width="2"/>
    </g>
  </g>
  <g id="Grupo_1868" data-name="Grupo 1868" transform="translate(1.849 0.12)" clip-path="url(#clip-path-2)">
    <g id="Grupo_1864" data-name="Grupo 1864" transform="translate(23.649 27.115)">
      <path id="Caminho_2234" data-name="Caminho 2234" d="M.037,0A1.456,1.456,0,0,1,.079.515C-.115,2-.91,2.933-2.132,2.933A2.347,2.347,0,0,1-4.35.5,2.1,2.1,0,0,1-4.309,0Z" transform="translate(4.35)" fill="#fff" stroke="#006cb3" stroke-width="2"/>
    </g>
    <g id="Grupo_1865" data-name="Grupo 1865" transform="translate(23.634 2.834)">
      <path id="Caminho_2235" data-name="Caminho 2235" d="M0,0V13.875" fill="#006cb3" stroke="#006cb3" stroke-width="2"/>
    </g>
    <g id="Grupo_1866" data-name="Grupo 1866" transform="translate(23.649 24.9)">
      <path id="Caminho_2236" data-name="Caminho 2236" d="M0,0V2.71" transform="translate(0)" fill="#006cb3" stroke="#006cb3" stroke-width="2"/>
    </g>
  </g>
  <g id="_24px" data-name="24px" transform="translate(9.557 10)">
    <path id="Caminho_2670" data-name="Caminho 2670" d="M0,0H13.975V13.975H0Z" fill="none"/>
    <path id="Caminho_2671" data-name="Caminho 2671" d="M7.817,2a5.823,5.823,0,1,0,5.829,5.823A5.82,5.82,0,0,0,7.817,2Zm4.035,3.494H10.134a9.112,9.112,0,0,0-.8-2.073A4.675,4.675,0,0,1,11.852,5.494ZM7.823,3.188A8.2,8.2,0,0,1,8.935,5.494H6.711A8.2,8.2,0,0,1,7.823,3.188Zm-4.507,5.8a4.555,4.555,0,0,1,0-2.329H5.284A9.617,9.617,0,0,0,5.2,7.823a9.617,9.617,0,0,0,.082,1.165Zm.477,1.165H5.511a9.112,9.112,0,0,0,.8,2.073,4.651,4.651,0,0,1-2.521-2.073ZM5.511,5.494H3.793A4.651,4.651,0,0,1,6.315,3.421a9.112,9.112,0,0,0-.8,2.073Zm2.312,6.964a8.2,8.2,0,0,1-1.112-2.306H8.935A8.2,8.2,0,0,1,7.823,12.458Zm1.363-3.47H6.46a8.567,8.567,0,0,1-.093-1.165A8.492,8.492,0,0,1,6.46,6.658H9.185a8.492,8.492,0,0,1,.093,1.165A8.567,8.567,0,0,1,9.185,8.987Zm.146,3.237a9.112,9.112,0,0,0,.8-2.073h1.718A4.675,4.675,0,0,1,9.331,12.225Zm1.031-3.237a9.616,9.616,0,0,0,.082-1.165,9.616,9.616,0,0,0-.082-1.165H12.33a4.555,4.555,0,0,1,0,2.329Z" transform="translate(-0.835 -0.835)" fill="#f6822a"/>
  </g>
</svg>
