<svg xmlns="http://www.w3.org/2000/svg" xmlns:xlink="http://www.w3.org/1999/xlink" viewBox="0 0 15.917 16.448">
  <defs>
    <style>
      .cls-1 {
        fill: #fff;
      }

      .cls-2 {
        clip-path: url(#clip-path);
      }
    </style>
    <clipPath id="clip-path">
      <path id="Path_2645" data-name="Path 2645" class="cls-1" d="M0-115.818H15.917V-99.37H0Z" transform="translate(0 115.818)"/>
    </clipPath>
  </defs>
  <g id="Group_2650" data-name="Group 2650" transform="translate(0 115.818)">
    <g id="Group_2633" data-name="Group 2633" class="cls-2" transform="translate(0 -115.818)">
      <g id="Group_2627" data-name="Group 2627" transform="translate(4.963 4.933)">
        <path id="Path_2639" data-name="Path 2639" class="cls-1" d="M-31.451-42.829a3.64,3.64,0,0,0-.841,1.23c-.433.732-.833,1.485-1.247,2.228-.17.305-.311.738-.77.49-.423-.229-.218-.612-.071-.937q.67-1.488,1.346-2.972c.059-.129.131-.253.181-.385.059-.157.109-.35-.055-.451s-.307.047-.424.165q-1.2,1.209-2.4,2.42c-.213.215-.407.53-.757.221-.321-.284-.123-.542.072-.8q1.2-1.586,2.381-3.181a4.792,4.792,0,0,0,.789-1.579c.143-.52-.045-.834-.63-.817-.473.014-.945.037-1.418.041a1.383,1.383,0,0,1-.87-.256c-.115-.086-.231-.177-.191-.344.033-.139.16-.171.276-.18,1.56-.124,2.828-1.022,4.223-1.585a3.648,3.648,0,0,1,1.567-.393,7.769,7.769,0,0,1,2.861,1.992,1.992,1.992,0,0,1-.058,1.6,12.6,12.6,0,0,0-1.059,6.279,1.408,1.408,0,0,1-.013.212c-.022.224-.076.438-.352.448s-.357-.18-.384-.414c-.085-.752-.167-1.5-.259-2.256-.036-.293.021-.727-.356-.75-.348-.021-.314.411-.363.67-.193,1.022-.355,2.05-.551,3.071-.059.305-.07.739-.556.655-.445-.077-.314-.464-.286-.753.093-.965.206-1.928.308-2.892a.964.964,0,0,0-.094-.771" transform="translate(36.657 49.918)"/>
      </g>
      <g id="Group_2628" data-name="Group 2628" transform="translate(0 0)">
        <path id="Path_2640" data-name="Path 2640" class="cls-1" d="M-45.222-51.456a9.678,9.678,0,0,1-1.966,2.89c-.534.571-1.951.126-2.386-.636a5.645,5.645,0,0,1-.685-2.152,6.045,6.045,0,0,0-1.19-2.84c-.409-.578-.768-1.192-1.141-1.795-.115-.186-.2-.4.029-.565s.407-.028.551.14c.537.63,1.063,1.269,1.6,1.9.153.181.354.426.585.284s.086-.431-.006-.643c-.423-.976-.862-1.945-1.275-2.924-.128-.3-.426-.7.06-.916s.574.289.726.568c.474.873.911,1.766,1.374,2.645.08.152.141.406.387.318.194-.07.112-.291.1-.442q-.119-1.77-.258-3.539c-.026-.337-.1-.733.344-.8.487-.076.555.361.615.7.2,1.142.373,2.287.557,3.431.036.226,0,.556.291.57s.276-.316.32-.538c.211-1.067.417-2.135.634-3.2.054-.267.061-.621.478-.565.4.053.444.351.423.691-.084,1.369-.168,2.739-.23,4.109a.486.486,0,0,1-.412.49,6.2,6.2,0,0,1-1.5.395,1.028,1.028,0,0,0-1.077.849,1.173,1.173,0,0,0,.65,1.234,4.618,4.618,0,0,0,2.407.339" transform="translate(52.707 59.973)"/>
      </g>
      <g id="Group_2629" data-name="Group 2629" transform="translate(15.306 6.526)">
        <path id="Path_2641" data-name="Path 2641" class="cls-1" d="M0-13.967a3.807,3.807,0,0,0,.107-2.077.169.169,0,0,1,.1-.231.226.226,0,0,1,.179.051A1.891,1.891,0,0,1,0-13.967" transform="translate(0 16.279)"/>
      </g>
      <g id="Group_2630" data-name="Group 2630" transform="translate(1.329 10.935)">
        <path id="Path_2642" data-name="Path 2642" class="cls-1" d="M-.864,0c.151-.009.193.1.23.214A2.782,2.782,0,0,0,.35,1.625c.094.069.193.168.1.283A.3.3,0,0,1,.2,1.944,2.9,2.9,0,0,1-1.006.21C-1,.116-.974.026-.864,0" transform="translate(1.007 0.003)"/>
      </g>
      <g id="Group_2631" data-name="Group 2631" transform="translate(1.999 10.647)">
        <path id="Path_2643" data-name="Path 2643" class="cls-1" d="M-1.735,0c0,.013.036.1.074.19A2.636,2.636,0,0,0-.485,1.548c.109.059.188.153.091.281a.189.189,0,0,1-.255.028A2.779,2.779,0,0,1-2,.3c-.043-.11-.029-.235.269-.3" transform="translate(2.022)"/>
      </g>
      <g id="Group_2632" data-name="Group 2632" transform="translate(14.502 6.361)">
        <path id="Path_2644" data-name="Path 2644" class="cls-1" d="M-3.642-7.785a2.574,2.574,0,0,1-.035.422c-.05.206.019.582-.306.512-.258-.056-.045-.363-.03-.555a3.044,3.044,0,0,0-.122-1.255c-.044-.128-.238-.322.027-.4.216-.065.24.167.306.309a2.348,2.348,0,0,1,.16.968" transform="translate(4.244 9.074)"/>
      </g>
    </g>
  </g>
</svg>
