<svg xmlns="http://www.w3.org/2000/svg" xmlns:xlink="http://www.w3.org/1999/xlink" viewBox="0 0 11.939 11.128">
  <defs>
    <style>
      .cls-1 {
        fill: none;
      }

      .cls-2 {
        fill: #fff;
      }

      .cls-3 {
        clip-path: url(#clip-path);
      }
    </style>
    <clipPath id="clip-path">
      <path id="Path_2610" data-name="Path 2610" class="cls-1" d="M0-416.165H11.939v11.128H0Z" transform="translate(0 416.165)"/>
    </clipPath>
  </defs>
  <g id="Group_2539" data-name="Group 2539" transform="translate(0 416.165)">
    <g id="Group_2533" data-name="Group 2533" transform="translate(9.527 -410.835)">
      <path id="Path_2606" data-name="Path 2606" class="cls-2" d="M-33.589-12.472l-.923.685.343.461.923-.685.685.923.461-.343-.685-.923-.343-.461Z" transform="translate(34.512 12.815)"/>
    </g>
    <g id="Group_2537" data-name="Group 2537" class="cls-3" transform="translate(0 -416.165)">
      <g id="Group_2534" data-name="Group 2534" transform="translate(0.543 5.73)">
        <path id="Path_2607" data-name="Path 2607" class="cls-2" d="M-387.887-3.921l-.73-.108a4.526,4.526,0,0,1-.048.738A4.608,4.608,0,0,1-393.9.593a4.62,4.62,0,0,1-3.9-3.951l-.745.01a5.229,5.229,0,0,0,4.538,4.659,5.335,5.335,0,0,0,6.064-4.5,5.232,5.232,0,0,0,.056-.736" transform="translate(398.544 4.029)"/>
      </g>
      <g id="Group_2535" data-name="Group 2535" transform="translate(0 4.068)">
        <path id="Path_2608" data-name="Path 2608" class="cls-2" d="M-54.213-50.385l.923-.685-.343-.461-.923.685-.685-.923-.461.343.685.923.343.461Z" transform="translate(55.702 51.769)"/>
      </g>
      <g id="Group_2536" data-name="Group 2536" transform="translate(0.738 0)">
        <path id="Path_2609" data-name="Path 2609" class="cls-2" d="M0-192.65l.73.108a4.562,4.562,0,0,1,.049-.741,4.607,4.607,0,0,1,5.237-3.883,4.621,4.621,0,0,1,3.9,3.953l.745-.02a5.192,5.192,0,0,0-4.537-4.652,5.336,5.336,0,0,0-6.064,4.5A5.252,5.252,0,0,0,0-192.65" transform="translate(0 197.943)"/>
      </g>
    </g>
  </g>
</svg>
