<svg id="Group_2376" data-name="Group 2376" xmlns="http://www.w3.org/2000/svg" viewBox="0 0 12.604 10.068">
  <defs>
    <style>
      .cls-1 {
        fill: #fff;
      }
    </style>
  </defs>
  <path id="Path_2473" data-name="Path 2473" class="cls-1" d="M25-278.521h.628V-286H25Z" transform="translate(-24.346 288.589)"/>
  <path id="Path_2474" data-name="Path 2474" class="cls-1" d="M241-374.958h.628V-385H241Z" transform="translate(-234.698 385)"/>
  <path id="Path_2475" data-name="Path 2475" class="cls-1" d="M96-23.372h9.414V-24H96Z" transform="translate(-93.49 33.44)"/>
  <path id="Path_2476" data-name="Path 2476" class="cls-1" d="M432-373.958h.628V-384H432Z" transform="translate(-420.703 384.026)"/>
  <path id="Path_2477" data-name="Path 2477" class="cls-1" d="M0-240.372H6.3V-241H0Z" transform="translate(0 244.766)"/>
  <path id="Path_2478" data-name="Path 2478" class="cls-1" d="M25-289h5.648v.628H25Z" transform="translate(-24.346 291.51)"/>
  <path id="Path_2479" data-name="Path 2479" class="cls-1" d="M289-240.372h5.047V-241H289Z" transform="translate(-281.443 244.766)"/>
  <path id="Path_2480" data-name="Path 2480" class="cls-1" d="M289-288.372h5.047V-289H289Z" transform="translate(-281.443 291.51)"/>
  <path id="Path_2481" data-name="Path 2481" class="cls-1" d="M289-336.371h5.047V-337H289Z" transform="translate(-281.443 338.254)"/>
  <path id="Path_2482" data-name="Path 2482" class="cls-1" d="M0-143.372H5.047V-144H0Z" transform="translate(0 150.302)"/>
  <path id="Path_2483" data-name="Path 2483" class="cls-1" d="M0-191.371H5.047V-192H0Z" transform="translate(0 197.046)"/>
  <path id="Path_2484" data-name="Path 2484" class="cls-1" d="M241-384.372h5.622V-385H241Z" transform="translate(-234.698 385)"/>
</svg>
