<svg xmlns="http://www.w3.org/2000/svg" viewBox="0 0 1057 290">
  <defs>
    <style>
      .cls-1 {
        fill: #fff;
        stroke: #707070;
      }

      .cls-2 {
        stroke: none;
      }

      .cls-3 {
        fill: none;
      }
    </style>
  </defs>
  <g id="Rectangle_1136" data-name="Rectangle 1136" class="cls-1">
    <path class="cls-2" d="M0,0H1041a16,16,0,0,1,16,16V274a16,16,0,0,1-16,16H0a0,0,0,0,1,0,0V0A0,0,0,0,1,0,0Z"/>
    <path class="cls-3" d="M1,.5H1041A15.5,15.5,0,0,1,1056.5,16V274a15.5,15.5,0,0,1-15.5,15.5H1a.5.5,0,0,1-.5-.5V1A.5.5,0,0,1,1,.5Z"/>
  </g>
</svg>
