<svg xmlns="http://www.w3.org/2000/svg" xmlns:xlink="http://www.w3.org/1999/xlink" viewBox="0 0 24.316 15">
  <defs>
    <style>
      .cls-1, .cls-3 {
        fill: none;
      }

      .cls-2 {
        clip-path: url(#clip-path);
      }

      .cls-3 {
        stroke: #0088e2;
      }

      .cls-4 {
        fill: #006cb3;
      }
    </style>
    <clipPath id="clip-path">
      <path id="Path_1340" data-name="Path 1340" class="cls-1" d="M0-15H24.316V0H0Z"/>
    </clipPath>
  </defs>
  <g id="Group_1560" data-name="Group 1560" transform="translate(0 15)">
    <g id="Group_1559" data-name="Group 1559" class="cls-2">
      <g id="Group_1556" data-name="Group 1556" transform="translate(22.27 -7.87)">
        <path id="Path_1337" data-name="Path 1337" class="cls-3" d="M0,0V-6.63H-20v12H0V0Z"/>
      </g>
      <g id="Group_1557" data-name="Group 1557" transform="translate(23.816 -2.5)">
        <path id="Path_1338" data-name="Path 1338" class="cls-3" d="M0,0A1.856,1.856,0,0,1-1.665,2H-21.651a1.856,1.856,0,0,1-1.665-2Z"/>
      </g>
      <g id="Group_1558" data-name="Group 1558" transform="translate(13.035 -12.885)">
        <path id="Path_1339" data-name="Path 1339" class="cls-4" d="M.329.165A.429.429,0,0,1-.1.594.429.429,0,0,1-.529.165.429.429,0,0,1-.1-.265a.429.429,0,0,1,.43.43" transform="translate(-0.329)"/>
      </g>
    </g>
  </g>
</svg>
