<svg xmlns="http://www.w3.org/2000/svg" viewBox="0 0 11.374 12.159"><defs><style>.a{fill:#f68936;}</style></defs><g transform="translate(-1020 -203.136)"><g transform="translate(1020 203.136)"><path class="a" d="M-41.585,0l-.552.368-.423.273-.515.371-.365.122L-43.9.8l-.274.153-.3-.214-.182.275.213.55-.122.305-.3.061-.152.4-.426.092-.335.244-.669-.061-.487-.489-.487.092-.4.244v.367l-.334.458.426.244.182.061v.428l-.274.489.122.641.213.122.091.244-.3.092.122.305-.213.58.152.366.335.244-.152.825-.122.153.03.122,1.612-.611V7.273l1.064-.183.487.428.274-.305.365.031.243.55.274.153.274.183.456-.153.973.824.365-.092.73.183.334.58-.486,1.4v.305l.243.092.03.428.791.458.578-.794-.152-.55.334-2.016-.182-.305.182-.428-.061-.824.152-.916.152-.916.122-.4.3.4,1.308-1.893-.334-.061-.152-.275L-37.6,3.12l-.03-.458.365-.214-.061-.336-.456-.183-.03-.305-.608-.58-.3.061-.183-.275L-39.73.34l-.4.489-.426.336-.335.244-.426.122-.3.183-.365.153h-.7l-.274.336-.152.336-.4.275-.213.061.182-.428-.03-.4.4-.092.578-.458.517-.031.608-.305.3.061.487-.183-.456-.886Z" transform="translate(48.154)"/></g></g></svg>