<svg xmlns="http://www.w3.org/2000/svg" xmlns:xlink="http://www.w3.org/1999/xlink" viewBox="0 0 16 18"><defs><style>.a,.c,.e{fill:none;}.b{clip-path:url(#a);}.c{stroke:#f6822a;}.d{fill:#006cb3;}.e{stroke:#006cb3;}</style><clipPath id="a"><path class="a" d="M0-18H16V0H0Z"/></clipPath></defs><g transform="translate(0 18)"><g class="b"><g transform="translate(6.5 -10)"><path class="c" d="M0,0V-5A2.717,2.717,0,0,0-3-7.5,2.717,2.717,0,0,0-6-5v2"/></g><g transform="translate(10.533 -6.07)"><path class="d" d="M0,0A1.028,1.028,0,0,0-1.019-1.075,1.018,1.018,0,0,0-2.024,0c0,.5.491.651.491.848V2.07h1V.848C-.533.651,0,.57,0,0"/></g><g transform="translate(15.5 -3.335)"><path class="e" d="M0,0C0,1.566-1.919,2.835-3.484,2.835H-8.5C-10.066,2.835-12,1.566-12,0V-7.165H0Z"/></g></g></g></svg>