<svg xmlns="http://www.w3.org/2000/svg" xmlns:xlink="http://www.w3.org/1999/xlink" viewBox="0 0 14.012 18.323"><defs><style>.a,.c,.e{fill:none;}.b{clip-path:url(#a);}.c{stroke:#f6822a;}.d{fill:#006cb3;}.e{stroke:#006cb3;}</style><clipPath id="a"><path class="a" d="M0-17H14.012V1.323H0Z" transform="translate(0 17)"/></clipPath></defs><g transform="translate(0 17)"><g class="b" transform="translate(0 -17)"><g transform="translate(3.772 0.539)"><path class="c" d="M0,.506V-3.805C0-5.294,1.33-6.5,3.233-6.5S6.467-5.294,6.467-3.805V.506" transform="translate(0 6.5)"/></g><g transform="translate(5.938 10.622)"><path class="d" d="M.157.084a1.108,1.108,0,0,0-1.1-1.159A1.1,1.1,0,0,0-2.024.084c0,.614.529.7.529.914V2.315H-.417V1c0-.212.574-.3.574-.914" transform="translate(2.024 1.075)"/></g><g transform="translate(0.539 7.006)"><path class="e" d="M.934.558c0,1.688-2.068,3.056-3.755,3.056H-8.228C-9.916,3.613-12,2.245-12,.558V-7.165H.934Z" transform="translate(12 7.165)"/></g></g></g></svg>