<svg xmlns="http://www.w3.org/2000/svg" viewBox="0 0 11.087 12.784"><defs><style>.a{fill:#f68936;}</style></defs><g transform="translate(-1020.599 -123.144)"><g transform="translate(1020.599 123.144)"><path class="a" d="M-8.361,0l-3.063.513-.345,1.24.733.684.13,1.325-.388,1.026.561,2.394.431.77.216,1.838.734.043-.216,1.8.992.214,1.38-.385,1.165.941.647.385,1.122-.3L-4,11.843l-.388-1.026-.431-.085-.13-.342h.518l1.121-.043.432-.812-.6-.257-.777.086.129-.684,1.208-.9.647-1.5,1.6-1.112L-1.889,4.96l-.475-.983-1.122-.513L-6.074,1.2h-.69Z" transform="translate(11.769)"/></g></g></svg>