<svg id="Group_2279" data-name="Group 2279" xmlns="http://www.w3.org/2000/svg" xmlns:xlink="http://www.w3.org/1999/xlink" viewBox="0 0 9.586 21.172">
  <defs>
    <style>
      .cls-1 {
        fill: none;
      }

      .cls-2 {
        clip-path: url(#clip-path);
      }

      .cls-3 {
        fill: #006cb3;
      }
    </style>
    <clipPath id="clip-path">
      <path id="Path_2434" data-name="Path 2434" class="cls-1" d="M0-7.615H9.586V13.557H0Z" transform="translate(0 7.615)"/>
    </clipPath>
  </defs>
  <g id="Group_2278" data-name="Group 2278" class="cls-2" transform="translate(0 0)">
    <g id="Group_2277" data-name="Group 2277" transform="translate(0.001 -0.001)">
      <path id="Path_2433" data-name="Path 2433" class="cls-3" d="M.039,4.53c0,2.694-.016,6.225-.016,8.916,0,2.057-.4,3.119,1.291,4.346,2.473,1.8,6.055.553,6.055-2.344,0-2.355.019-4.777.019-7.126V.076c0-2.544-3.707-3.509-5.458-1.663A2.585,2.585,0,0,0,1.317.31c-.029,1.287,0,2.575,0,3.862,0,2.664-.144,5.363,0,8.024.144,2.716,4.969,2.644,4.969-.114V3.921c0-.487-.863-.487-.863,0V10.4c0,.576-.006,1.8-.006,1.8,0,1.546-3.1,1.593-3.237-.039-.173-2.046,0-4.159,0-6.211C2.18,3.988,2,1.956,2.18,0c.16-1.729,2.946-2.327,4.052-.809A1.844,1.844,0,0,1,6.522.5V14.356a3.337,3.337,0,0,1-.847,2.816A3.366,3.366,0,0,1,1.7,17.083c-.761-.662-.8-1.6-.8-3.05V4.53c0-.484-.866-.487-.866,0" transform="translate(0.018 2.545)"/>
    </g>
  </g>
</svg>
