<svg xmlns="http://www.w3.org/2000/svg" xmlns:xlink="http://www.w3.org/1999/xlink" viewBox="0 0 16.377 18.197"><defs><style>.a{fill:none;}.b{fill:#f6822a;}.c{clip-path:url(#a);}.d{fill:#006cb3;}</style><clipPath id="a"><path class="a" d="M0-18.2H16.377V0H0Z"/></clipPath></defs><g transform="translate(-1161.623 -136.197)"><path class="b" d="M9.183-8.3h-2v-9h2Z" transform="translate(1161.623 154.394)"/><g class="c" transform="translate(1161.623 154.394)"><g transform="translate(1.58 -15.106)"><path class="d" d="M0,0-.008,11.232a1.105,1.105,0,0,0,.269.89,1.961,1.961,0,0,0,1.127.214H4.457a3.384,3.384,0,0,1,1.335.223,2.125,2.125,0,0,1,.82.851,1.927,1.927,0,0,1,1.7-1.074H11.8a2.021,2.021,0,0,0,1.151-.214,1.114,1.114,0,0,0,.276-.89l-.008-1.167H14.8v1.926a1.968,1.968,0,0,1-.606,1.619,3.172,3.172,0,0,1-1.994.5H8.407a1.064,1.064,0,0,0-.711.269,1.344,1.344,0,0,0-.416.729H5.807a1.237,1.237,0,0,0-.468-.768,1.777,1.777,0,0,0-1-.23H.921a3.009,3.009,0,0,1-1.908-.487,1.919,1.919,0,0,1-.593-1.568V10.971L-1.557,0Z"/></g><g transform="translate(14.797 -3.87)"><path class="d" d="M0,0,.008-11.451a1.1,1.1,0,0,0-.269-.889,1.95,1.95,0,0,0-1.127-.215H-4.457c-1.952,0-2.012.762-2.012.762s-.139-.762-1.839-.762H-11.8a2,2,0,0,0-1.15.215,1.108,1.108,0,0,0-.277.889l.008.215h-1.549l-.031-.974a1.83,1.83,0,0,1,.606-1.618,2.934,2.934,0,0,1,1.994-.5h3.79c2,0,1.968.942,1.968.942s-.169-.942,2.1-.942H-.921a3.009,3.009,0,0,1,1.908.487,2.22,2.22,0,0,1,.593,1.569v.342L1.557,0Z"/></g></g></g></svg>