<svg xmlns="http://www.w3.org/2000/svg" xmlns:xlink="http://www.w3.org/1999/xlink" viewBox="0 0 19.148 24.363">
  <defs>
    <style>
      .cls-1 {
        fill: #fff;
      }

      .cls-2 {
        clip-path: url(#clip-path);
      }
    </style>
    <clipPath id="clip-path">
      <path id="Path_2325" data-name="Path 2325" class="cls-1" d="M0-11.637H19.148V12.727H0Z" transform="translate(0 11.637)"/>
    </clipPath>
  </defs>
  <g id="Group_2051" data-name="Group 2051" transform="translate(0 11.637)">
    <path id="Path_2323" data-name="Path 2323" class="cls-1" d="M0-2.377H5.473v-2.4H0Z" transform="translate(0 7.499)"/>
    <g id="Group_2050" data-name="Group 2050" class="cls-2" transform="translate(0 -11.637)">
      <g id="Group_2049" data-name="Group 2049" transform="translate(6.906 0.001)">
        <path id="Path_2324" data-name="Path 2324" class="cls-1" d="M4.011,0V2.4a5.089,5.089,0,0,1,2.368.957A7.345,7.345,0,0,1,8.134,5.582L5.741,6.919a3.2,3.2,0,0,0-2.82-1.964,2.588,2.588,0,0,0-1.792.639,2.05,2.05,0,0,0-.712,1.6A1.961,1.961,0,0,0,.995,8.636a8.319,8.319,0,0,0,2.28,1.338,22.891,22.891,0,0,1,2.454,1.269A6.589,6.589,0,0,1,7.19,12.39a5.14,5.14,0,0,1,1.386,3.618,5.8,5.8,0,0,1-1.252,3.681,6.06,6.06,0,0,1-3.312,2.135v2.54H1.865V21.9A6.525,6.525,0,0,1-1.8,20.241a7.885,7.885,0,0,1-1.865-3.9l2.7-.565a6.321,6.321,0,0,0,1.35,2.663A3.166,3.166,0,0,0,2.6,19.2a3.134,3.134,0,0,0,2.257-.871,2.943,2.943,0,0,0,.9-2.221,2.612,2.612,0,0,0-.747-1.949,6.838,6.838,0,0,0-1.124-.8,19,19,0,0,0-1.895-.976,9.17,9.17,0,0,1-3.128-1.962,4.654,4.654,0,0,1-1.189-3.2A4.728,4.728,0,0,1-2.05,5.569a4.5,4.5,0,0,1,.817-1.38A5.1,5.1,0,0,1,.086,3.115,7.119,7.119,0,0,1,1.865,2.4V0Z" transform="translate(3.668)"/>
      </g>
    </g>
  </g>
</svg>
