<svg id="Group_2208" data-name="Group 2208" xmlns="http://www.w3.org/2000/svg" viewBox="0 0 13.789 17.746">
  <defs>
    <style>
      .cls-1, .cls-2, .cls-5 {
        fill: none;
      }

      .cls-1 {
        stroke: #fff;
      }

      .cls-2 {
        stroke: #f6822a;
      }

      .cls-3 {
        fill: #f68936;
      }

      .cls-4 {
        stroke: none;
      }
    </style>
  </defs>
  <g id="Ellipse_257" data-name="Ellipse 257" class="cls-1">
    <circle class="cls-4" cx="6.894" cy="6.894" r="6.894"/>
    <circle class="cls-5" cx="6.894" cy="6.894" r="6.394"/>
  </g>
  <line id="Line_537" data-name="Line 537" class="cls-2" x2="2.482" y2="4.688" transform="translate(10.341 12.823)"/>
  <g id="Group_634" data-name="Group 634" transform="translate(3.833 3.898)">
    <path id="Path_538" data-name="Path 538" class="cls-3" d="M-44.634,0l-.3.2-.227.146-.276.2-.2.065-.244-.18-.147.082L-46.182.4l-.1.147.114.295L-46.231,1l-.163.033-.082.213L-46.7,1.3l-.179.131-.358-.033-.261-.262-.261.049-.212.131v.2l-.179.245.228.131.1.033v.229l-.147.262.065.344.114.065.049.131L-47.91,3l.065.164-.114.311.081.2.179.131-.082.442-.065.082.016.065.864-.327V3.9l.57-.1.261.229.147-.164.2.016.13.295.147.082.147.1.244-.082.522.442.2-.049.391.1.179.311-.261.753v.164l.13.049.016.229.424.245.31-.426L-43.3,5.8l.179-1.08-.1-.164.1-.229-.033-.442.082-.491.081-.491.065-.213.163.213.7-1.015-.179-.033L-42.32,1.7l-.179-.033-.016-.246.2-.115-.033-.18-.244-.1L-42.613.87l-.326-.311L-43.1.592l-.1-.147-.44-.262-.212.262-.228.18-.179.131-.228.065-.163.1-.2.082h-.375l-.147.18-.081.18-.212.147-.114.033.1-.229-.016-.213.212-.049.31-.245.277-.016.326-.164.163.033.261-.1-.245-.475Z" transform="translate(48.154)"/>
  </g>
</svg>
