<svg xmlns="http://www.w3.org/2000/svg" xmlns:xlink="http://www.w3.org/1999/xlink" viewBox="0 0 35.456 37.133"><defs><style>.a,.c,.d{fill:none;}.b{clip-path:url(#a);}.c{stroke:#f6822a;stroke-width:1.5px;}.d{stroke:#fff;stroke-width:2px;}</style><clipPath id="a"><path class="a" d="M0-28.1H35.456V9.029H0Z" transform="translate(0 26.44)"/></clipPath></defs><g transform="translate(-17.542 -192.955)"><g class="b" transform="translate(17.542 194.618)"><g transform="translate(21.385 24.295)"><path class="c" d="M0,0l11.085-.01" transform="translate(0 0.008)"/></g><g transform="translate(29.254 21.648)"><path class="c" d="M0,0,3.216,2.647.03,5.176"/></g><g transform="translate(1.799 32.914)"><path class="d" d="M4.836,0-21.707.078" transform="translate(21.707)"/></g><g transform="translate(0 0.598)"><path class="d" d="M5.687,0H-21" transform="translate(21)"/></g><g transform="translate(2.783 0.598)"><path class="d" d="M0,0V32.867"/></g></g><g transform="translate(23.518 202.772)"><path class="c" d="M0,0H16.732"/></g><g transform="translate(23.518 206.741)"><path class="c" d="M0,0H16.732"/></g><g transform="translate(23.518 210.711)"><path class="c" d="M0,0H16.732"/></g><g transform="translate(23.518 214.68)"><path class="c" d="M0,0H16.732"/></g><g transform="translate(23.518 218.65)"><path class="c" d="M0,0H9.561"/></g><g transform="translate(43.257 223.901)"><path class="d" d="M.849,0A1.786,1.786,0,0,1,.9.621C.669,2.417-.273,3.537-1.722,3.537A2.811,2.811,0,0,1-4.35.6,2.581,2.581,0,0,1-4.3,0Z" transform="translate(4.35)"/></g><g transform="translate(43.22 194.756)"><path class="d" d="M0,0V21.377" transform="translate(0.064)"/></g><g transform="translate(43.238 222.108)"><path class="d" d="M0,0V2.39"/></g><path class="a" d="M0-28.1H33.422V5.485H0Z" transform="translate(17.542 222.722)"/></g></svg>