<svg xmlns="http://www.w3.org/2000/svg" xmlns:xlink="http://www.w3.org/1999/xlink" viewBox="0 0 13.039 15.981">
  <defs>
    <style>
      .cls-1, .cls-2, .cls-3, .cls-5, .cls-6 {
        fill: none;
      }

      .cls-2, .cls-5 {
        stroke: #f6822a;
      }

      .cls-3, .cls-6 {
        stroke: #fff;
      }

      .cls-4 {
        clip-path: url(#clip-path);
      }

      .cls-5, .cls-6 {
        stroke-width: 0.5px;
      }

      .cls-7 {
        stroke: none;
      }
    </style>
    <clipPath id="clip-path">
      <path id="Path_2376" data-name="Path 2376" class="cls-1" d="M0-8H2.695v5.8H0Z" transform="translate(0 8)"/>
    </clipPath>
  </defs>
  <g id="Group_2194" data-name="Group 2194" transform="translate(-26.233 -312.539)">
    <g id="Group_2192" data-name="Group 2192">
      <path id="Path_2370" data-name="Path 2370" class="cls-2" d="M7481.965-3083.493h7.429" transform="translate(-7453.34 3400)"/>
      <path id="Path_2371" data-name="Path 2371" class="cls-2" d="M7481.965-3083.493h7.429" transform="translate(-7453.34 3402)"/>
      <path id="Path_2372" data-name="Path 2372" class="cls-2" d="M7481.965-3083.493h7.429" transform="translate(-7453.34 3404)"/>
      <path id="Path_2373" data-name="Path 2373" class="cls-2" d="M7481.965-3083.493h5.006" transform="translate(-7453.34 3406)"/>
    </g>
    <g id="Group_2193" data-name="Group 2193">
      <path id="Path_2369" data-name="Path 2369" class="cls-3" d="M7490.486-3080.932v-5.794h-10.753v14.981h10.753v-1.395" transform="translate(-7453 3399.765)"/>
      <g id="Group_2109" data-name="Group 2109" transform="translate(-7397 3361)">
        <g id="Group_2108" data-name="Group 2108" transform="translate(7434.551 -3032.58)">
          <g id="Group_2107" data-name="Group 2107" class="cls-4" transform="translate(-0.974 -9.823)">
            <g id="Group_2106" data-name="Group 2106" transform="translate(1.14 1.922)">
              <path id="Path_2375" data-name="Path 2375" class="cls-5" d="M-4.74-6.442v-.564c0-.273-.259-.494-.63-.494S-6-7.279-6-7.006v1.588" transform="translate(6 7.5)"/>
            </g>
          </g>
        </g>
        <g id="Rectangle_1183" data-name="Rectangle 1183" class="cls-6" transform="translate(7432.709 -3038.802)">
          <rect class="cls-7" width="3.38" height="2.958"/>
          <rect class="cls-1" x="0.25" y="0.25" width="2.88" height="2.458"/>
        </g>
      </g>
    </g>
  </g>
</svg>
