<svg xmlns="http://www.w3.org/2000/svg" xmlns:xlink="http://www.w3.org/1999/xlink" viewBox="0 0 31 37">
  <defs>
    <style>
      .cls-1, .cls-2 {
        fill: none;
      }

      .cls-2 {
        stroke: #fff;
        stroke-width: 2px;
      }

      .cls-3, .cls-7 {
        fill: #fff;
      }

      .cls-4 {
        clip-path: url(#clip-path);
      }

      .cls-5 {
        fill: #f6822a;
      }

      .cls-6, .cls-7 {
        stroke: none;
      }
    </style>
    <clipPath id="clip-path">
      <path id="Path_2446" data-name="Path 2446" class="cls-1" d="M0-6.383H5.336V4.234H0Z" transform="translate(0 6.383)"/>
    </clipPath>
  </defs>
  <g id="Group_2350" data-name="Group 2350" transform="translate(-235 -30)">
    <g id="Ellipse_271" data-name="Ellipse 271" class="cls-2" transform="translate(242 43)">
      <circle class="cls-6" cx="12" cy="12" r="12"/>
      <circle class="cls-1" cx="12" cy="12" r="11"/>
    </g>
    <g id="Union_166" data-name="Union 166" class="cls-3" transform="translate(235 30)">
      <path class="cls-6" d="M 13.50040054321289 15.50020027160645 L 12.49970054626465 15.50020027160645 L 12.49970054626465 7.500200271606445 L 13.50040054321289 7.500200271606445 L 13.50040054321289 15.50020027160645 Z M 1.522262692451477 6.500885009765625 L 0.5190162658691406 6.500433444976807 C 0.7751422524452209 3.148946762084961 3.583776235580444 0.5000001192092896 6.999300479888916 0.5000001192092896 C 10.41529083251953 0.5000001192092896 13.22431468963623 3.148505926132202 13.48047637939453 6.499533653259277 L 12.47733402252197 6.499985218048096 C 12.36242961883545 5.22123384475708 11.80795288085938 4.033143997192383 10.88714981079102 3.112350225448608 C 9.8472900390625 2.072480201721191 8.466549873352051 1.499800086021423 6.999300479888916 1.499800086021423 C 4.135112285614014 1.499800086021423 1.775296568870544 3.701018333435059 1.522262692451477 6.500885009765625 Z"/>
      <path class="cls-7" d="M 13.00040054321289 15.00020027160645 L 13.00040054321289 8.000200271606445 L 12.99970054626465 8.000200271606445 L 12.99970054626465 15.00020027160645 L 13.00040054321289 15.00020027160645 M 14.00040054321289 16.00020027160645 L 11.99970054626465 16.00020027160645 L 11.99970054626465 7.000200271606445 L 14.00040054321289 7.000200271606445 L 14.00040054321289 16.00020027160645 Z M 1.999800324440002 7.001100063323975 L 1.998900294303894 7.001100063323975 L 2.716064386731887e-07 7.000200271606445 C 2.716064386731887e-07 3.140100240707397 3.141000270843506 1.358032193365943e-07 6.999300479888916 1.358032193365943e-07 C 10.85939979553223 1.358032193365943e-07 13.9995002746582 3.140100240707397 13.9995002746582 6.999300003051758 L 11.99970054626465 7.000200271606445 C 11.99970054626465 5.666399955749512 11.47949981689453 4.411799907684326 10.53359985351562 3.465900182723999 C 9.588600158691406 2.520900249481201 8.333100318908691 1.999800086021423 6.999300479888916 1.999800086021423 C 4.242600440979004 1.999800086021423 1.999800324440002 4.242599964141846 1.999800324440002 7.000200271606445 L 1.999800324440002 7.001100063323975 Z"/>
    </g>
    <g id="Group_2342" data-name="Group 2342" transform="translate(251 55.766)">
      <g id="Group_2341" data-name="Group 2341" class="cls-4" transform="translate(0 -6.383)">
        <g id="Group_2340" data-name="Group 2340" transform="translate(0 0)">
          <path id="Path_2445" data-name="Path 2445" class="cls-5" d="M1.335,0V1.048a2.192,2.192,0,0,1,1.031.418,3.186,3.186,0,0,1,.765.966l-1.043.584A1.393,1.393,0,0,0,.859,2.161a1.118,1.118,0,0,0-.78.278.888.888,0,0,0-.311.694.861.861,0,0,0,.251.632,3.683,3.683,0,0,0,.995.582,9.969,9.969,0,0,1,1.07.554,2.849,2.849,0,0,1,.635.5,2.236,2.236,0,0,1,.605,1.577,2.533,2.533,0,0,1-.546,1.605,2.642,2.642,0,0,1-1.444.93v1.106H.4V9.543a2.83,2.83,0,0,1-1.6-.722,3.436,3.436,0,0,1-.813-1.7l1.176-.246A2.729,2.729,0,0,0-.247,8.036a1.374,1.374,0,0,0,.966.331A1.369,1.369,0,0,0,1.7,7.988a1.283,1.283,0,0,0,.389-.968,1.138,1.138,0,0,0-.326-.85,2.953,2.953,0,0,0-.489-.349,7.982,7.982,0,0,0-.825-.426A4,4,0,0,1-.911,4.539a2.028,2.028,0,0,1-.519-1.4,2.06,2.06,0,0,1,.123-.717,1.979,1.979,0,0,1,.356-.6,2.2,2.2,0,0,1,.574-.469A3.131,3.131,0,0,1,.4,1.048V0Z" transform="translate(2.012)"/>
        </g>
      </g>
    </g>
  </g>
</svg>
