<svg xmlns="http://www.w3.org/2000/svg" xmlns:xlink="http://www.w3.org/1999/xlink" viewBox="0 0 32.284 32.973">
  <defs>
    <style>
      .cls-1, .cls-2, .cls-4 {
        fill: none;
      }

      .cls-2 {
        stroke: #707070;
      }

      .cls-2, .cls-4 {
        stroke-width: 2px;
      }

      .cls-3 {
        clip-path: url(#clip-path);
      }

      .cls-4 {
        stroke: #fff;
      }

      .cls-5 {
        clip-path: url(#clip-path-2);
      }

      .cls-6 {
        clip-path: url(#clip-path-3);
      }

      .cls-7 {
        fill: #f6822a;
      }
    </style>
    <clipPath id="clip-path">
      <path id="Path_2227" data-name="Path 2227" class="cls-1" d="M0-28.1H32.125V4.869H0Z" transform="translate(0 28.104)"/>
    </clipPath>
    <clipPath id="clip-path-2">
      <path id="Path_2238" data-name="Path 2238" class="cls-2" d="M0-28.1H30.467V4.737H0Z" transform="translate(0 28.104)"/>
    </clipPath>
    <clipPath id="clip-path-3">
      <path id="Path_2240" data-name="Path 2240" class="cls-1" d="M0-5.352H11V5.641H0Z" transform="translate(0 5.352)"/>
    </clipPath>
  </defs>
  <g id="Group_1902" data-name="Group 1902" transform="translate(-226.896 -400.027)">
    <g id="Group_1878" data-name="Group 1878" transform="translate(127.737 209)">
      <g id="Group_1857" data-name="Group 1857" class="cls-3" transform="translate(99.159 191.027)">
        <g id="Group_1854" data-name="Group 1854" transform="translate(5.723 30.168)">
          <path id="Path_2224" data-name="Path 2224" class="cls-4" d="M-.194,0-21.707.144" transform="translate(21.707)"/>
        </g>
        <g id="Group_1855" data-name="Group 1855" transform="translate(3.734 3.45)">
          <path id="Path_2225" data-name="Path 2225" class="cls-4" d="M1.121,0H-21" transform="translate(21)"/>
        </g>
        <g id="Group_1856" data-name="Group 1856" transform="translate(6.212 2.954)">
          <path id="Path_2226" data-name="Path 2226" class="cls-4" d="M0,0V28.179" transform="translate(0)"/>
        </g>
      </g>
      <g id="Group_1868" data-name="Group 1868" class="cls-5" transform="translate(100.976 191.147)">
        <g id="Group_1864" data-name="Group 1864" transform="translate(23.24 27.115)">
          <path id="Path_2234" data-name="Path 2234" class="cls-4" d="M-.039,0A1.481,1.481,0,0,1,0,.515C-.188,2-.969,2.933-2.171,2.933A2.331,2.331,0,0,1-4.35.5,2.14,2.14,0,0,1-4.309,0Z" transform="translate(4.35)"/>
        </g>
        <g id="Group_1865" data-name="Group 1865" transform="translate(23.225 2.834)">
          <path id="Path_2235" data-name="Path 2235" class="cls-4" d="M0,0V13.875"/>
        </g>
        <g id="Group_1866" data-name="Group 1866" transform="translate(23.24 24.9)">
          <path id="Path_2236" data-name="Path 2236" class="cls-4" d="M0,0V2.71" transform="translate(0)"/>
        </g>
      </g>
    </g>
    <g id="Group_1881" data-name="Group 1881" transform="translate(237.178 416.704)">
      <g id="Group_1880" data-name="Group 1880" class="cls-6" transform="translate(0 -5.352)">
        <g id="Group_1879" data-name="Group 1879" transform="translate(-0.001 0)">
          <path id="Path_2239" data-name="Path 2239" class="cls-7" d="M1.569,2.2S2.922,1.325,2.922.846c0-1.035-1.9-3.038-2.929-2.929a1.966,1.966,0,0,0-1,.635,1.511,1.511,0,0,0-.468.83s-.446,2.083,3.5,6.026C5.738,9.123,8.049,8.9,8.049,8.9s.218.084.842-.54c.536-.534.622-.665.622-.924,0-1.035-1.894-2.929-2.931-2.929C6.1,4.508,5.2,5.886,5.2,5.886A6.227,6.227,0,0,1,3.091,4.3,6.109,6.109,0,0,1,1.569,2.2" transform="translate(1.488 2.087)"/>
        </g>
      </g>
    </g>
  </g>
</svg>
