<svg xmlns="http://www.w3.org/2000/svg" xmlns:xlink="http://www.w3.org/1999/xlink" viewBox="0 0 12.856 15.981">
  <defs>
    <style>
      .cls-1, .cls-2, .cls-3, .cls-5, .cls-6 {
        fill: none;
      }

      .cls-2, .cls-5 {
        stroke: #f6822a;
      }

      .cls-3, .cls-6 {
        stroke: #fff;
      }

      .cls-4 {
        clip-path: url(#clip-path);
      }

      .cls-5, .cls-6 {
        stroke-width: 0.5px;
      }

      .cls-7 {
        stroke: none;
      }
    </style>
    <clipPath id="clip-path">
      <path id="Path_2376" data-name="Path 2376" class="cls-1" d="M0-8H2.793v5.487H0Z" transform="translate(0 8)"/>
    </clipPath>
  </defs>
  <g id="Group_2191" data-name="Group 2191" transform="translate(-26.233 -279.539)">
    <g id="Group_2190" data-name="Group 2190">
      <path id="Path_2365" data-name="Path 2365" class="cls-2" d="M7481.965-3083.493h7.429" transform="translate(-7453.34 3367)"/>
      <path id="Path_2366" data-name="Path 2366" class="cls-2" d="M7481.965-3083.493h7.429" transform="translate(-7453.34 3369)"/>
      <path id="Path_2367" data-name="Path 2367" class="cls-2" d="M7481.965-3083.493h7.429" transform="translate(-7453.34 3371)"/>
      <path id="Path_2368" data-name="Path 2368" class="cls-2" d="M7481.965-3083.493h5.006" transform="translate(-7453.34 3373)"/>
    </g>
    <g id="Group_2189" data-name="Group 2189">
      <path id="Path_2364" data-name="Path 2364" class="cls-3" d="M7490.486-3080.932v-5.794h-10.753v14.981h10.753v-1.395" transform="translate(-7453 3366.765)"/>
      <g id="Group_2188" data-name="Group 2188">
        <g id="Group_2110" data-name="Group 2110" transform="translate(36.551 295.736)">
          <g id="Group_2107" data-name="Group 2107" class="cls-4" transform="translate(-0.974 -9.823)">
            <g id="Group_2106" data-name="Group 2106" transform="translate(1.181 1.817)">
              <path id="Path_2375" data-name="Path 2375" class="cls-5" d="M-4.694-5.532v-1.5c0-.258-.269-.467-.653-.467S-6-7.291-6-7.033v1.5" transform="translate(6 7.5)"/>
            </g>
          </g>
        </g>
        <g id="Group_2102" data-name="Group 2102" transform="translate(-7408.291 3336.507)">
          <g id="Rectangle_1181" data-name="Rectangle 1181" class="cls-6" transform="translate(7444 -3047.31)">
            <rect class="cls-7" width="3.38" height="2.958"/>
            <rect class="cls-1" x="0.25" y="0.25" width="2.88" height="2.458"/>
          </g>
        </g>
      </g>
    </g>
  </g>
</svg>
