<svg xmlns="http://www.w3.org/2000/svg" xmlns:xlink="http://www.w3.org/1999/xlink" viewBox="0 0 30.438 31.112"><defs><style>.a,.c,.d{fill:none;}.b{clip-path:url(#a);}.c{stroke:#fff;stroke-width:2px;}.d{stroke:#f6822a;stroke-width:1.5px;}</style><clipPath id="a"><path class="a" d="M0-19.9H30.438V11.21H0Z" transform="translate(-2.459 18.018)"/></clipPath></defs><g transform="translate(-17.202 -307.018)"><g class="b" transform="translate(19.66 308.902)"><g transform="translate(0 4.484)"><path class="c" d="M2.6,0H-7" transform="translate(7)"/></g><g transform="translate(20.567 4.484)"><path class="c" d="M1.113,0H-3" transform="translate(3)"/></g><g transform="translate(12.441 0.544)"><path class="d" d="M1.794.9A3.314,3.314,0,0,1-1.52,4.211,3.314,3.314,0,0,1-4.834.9,3.314,3.314,0,0,1-1.52-2.417,3.314,3.314,0,0,1,1.794.9Z" transform="translate(4.834 2.417)"/></g><g transform="translate(15.082 14.082)"><path class="c" d="M0,0H9.6"/></g><g transform="translate(0 14.082)"><path class="c" d="M0,0H4.113"/></g><g transform="translate(5.916 10.33)"><path class="d" d="M0,.9A3.314,3.314,0,1,1,3.314,4.211,3.314,3.314,0,0,1,0,.9Z" transform="translate(0 2.417)"/></g><g transform="translate(0 22.308)"><path class="c" d="M2.6,0H-7" transform="translate(7)"/></g><g transform="translate(20.567 22.308)"><path class="c" d="M1.113,0H-3" transform="translate(3)"/></g><g transform="translate(12.441 20.116)"><path class="d" d="M1.794.9A3.314,3.314,0,0,1-1.52,4.211,3.314,3.314,0,0,1-4.834.9,3.314,3.314,0,0,1-1.52-2.417,3.314,3.314,0,0,1,1.794.9Z" transform="translate(4.834 2.417)"/></g></g></g></svg>