<svg xmlns="http://www.w3.org/2000/svg" viewBox="0 0 15.45 19.99"><defs><style>.a,.b{fill:none;}.a{stroke:#f6822a;}.b{stroke:#006cb3;}</style></defs><g transform="translate(-1162.689 -222.152)"><g transform="translate(1173.13 236.069)"><path class="a" d="M-1.732-2.055V-4.223s-.146-3.084-4.509-3.184" transform="translate(6.241 7.407)"/></g><g transform="translate(1163.189 236.069)"><path class="a" d="M0-2.055V-4.223S.146-7.307,4.509-7.407A2.992,2.992,0,0,0,5.894-5.9" transform="translate(0 7.407)"/></g><g transform="translate(1166.079 239.975)"><path class="b" d="M0,0V1.445"/></g><g transform="translate(1174.026 239.975)"><path class="b" d="M0,0V1.445"/></g><g transform="translate(1170.414 236.478)"><path class="b" d="M0-2.176V-6.511A2.456,2.456,0,0,0,1.468-7.84" transform="translate(0 7.84)"/></g><g transform="translate(1165.251 222.73)"><path class="b" d="M-2.094-.07C-3.087-.4-9.795-1.3-6.765,8.265c.781,2.466,4.708,6.391,7.818.122A10.658,10.658,0,0,0,1.665,1.5C1.532,1.029.7,1.417-.236,1-1.456.46-1.584.1-2.094-.07Z" transform="translate(7.545 0.253)"/></g></g></svg>