<svg xmlns="http://www.w3.org/2000/svg" viewBox="0 0 21.037 13.914">
  <defs>
    <style>
      .cls-1 {
        fill: #fff;
        stroke: #006cb3;
      }

      .cls-2, .cls-4 {
        fill: none;
      }

      .cls-3, .cls-5 {
        stroke: none;
      }

      .cls-5 {
        fill: #006cb3;
      }
    </style>
  </defs>
  <g id="Group_1668" data-name="Group 1668" transform="translate(-1190.963 -593.5)">
    <g id="Ellipse_218" data-name="Ellipse 218" class="cls-1" transform="translate(1197.935 596.978)">
      <ellipse class="cls-3" cx="3.479" cy="3.478" rx="3.479" ry="3.478"/>
      <ellipse class="cls-4" cx="3.479" cy="3.478" rx="2.979" ry="2.978"/>
    </g>
    <g id="Path_1364" data-name="Path 1364" class="cls-2" transform="translate(1196.988 593.5)">
      <path class="cls-3" d="M4.425,0C11.248,0,15.12,6.546,15.009,6.957S10.8,13.914,4.425,13.914-6.313,7.481-6.011,6.957-2.4,0,4.425,0Z"/>
      <path class="cls-5" d="M 4.424795627593994 12.91385746002197 C 7.348145484924316 12.91385746002197 9.732495307922363 11.33442783355713 11.21794509887695 10.00944805145264 C 12.63666343688965 8.743978500366211 13.55782127380371 7.444309711456299 13.91590690612793 6.875324249267578 C 13.60644149780273 6.30134916305542 12.74603080749512 5.020935535430908 11.32178497314453 3.77188777923584 C 9.879885673522949 2.507367849349976 7.512875556945801 0.9999977946281433 4.424795627593994 0.9999977946281433 C -0.7450003623962402 0.9999977946281433 -3.7684326171875 5.086691856384277 -4.946940898895264 7.108569145202637 C -4.649178504943848 7.682096481323242 -3.706941366195679 8.99722957611084 -2.223894596099854 10.24126815795898 C -0.770434558391571 11.46048736572266 1.56289541721344 12.91385746002197 4.424795627593994 12.91385746002197 M 4.424795627593994 13.91385746002197 C -1.951884508132935 13.91385746002197 -6.313084602355957 7.480637550354004 -6.010724544525146 6.95692777633667 C -5.708354473114014 6.433218002319336 -2.398844480514526 -2.223663386757835e-06 4.424795627593994 -2.223663386757835e-06 C 11.24843502044678 -2.223663386757835e-06 15.1195650100708 6.545907974243164 15.00942516326904 6.95692777633667 C 14.89929580688477 7.367947578430176 10.80147552490234 13.91385746002197 4.424795627593994 13.91385746002197 Z"/>
    </g>
  </g>
</svg>
