<svg xmlns="http://www.w3.org/2000/svg" xmlns:xlink="http://www.w3.org/1999/xlink" viewBox="0 0 37.638 28.147"><defs><style>.a,.c,.d{fill:none;}.b{clip-path:url(#a);}.c{stroke:#fff;}.c,.d{stroke-width:2px;}.d{stroke:#f6822a;}</style><clipPath id="a"><path class="a" d="M0-19.813H37.638V8.334H0Z" transform="translate(0 19.813)"/></clipPath></defs><g transform="translate(-13.159 -253.579)"><g class="b" transform="translate(13.159 253.579)"><g transform="translate(2.409 3.212)"><path class="c" d="M0,2.2S4.58,2.74,7.48-2.66C9.5-6.422,11.024-19.007,14.236-19.009c3.394,0,3.937,12.46,6.656,17.133A8.661,8.661,0,0,0,28.5,2.332" transform="translate(0 19.009)"/></g><g transform="translate(6.759 3.212)"><path class="d" d="M0,2.2S4.58,2.74,7.48-2.66C9.5-6.422,11.024-19.007,14.236-19.009c3.394,0,3.937,12.46,6.656,17.133A8.661,8.661,0,0,0,28.5,2.332" transform="translate(0 19.009)"/></g></g></g></svg>