<svg xmlns="http://www.w3.org/2000/svg" xmlns:xlink="http://www.w3.org/1999/xlink" viewBox="0 0 19.278 16.19">
  <defs>
    <style>
      .cls-1, .cls-3, .cls-4, .cls-6, .cls-7 {
        fill: none;
      }

      .cls-2 {
        clip-path: url(#clip-path);
      }

      .cls-3, .cls-7 {
        stroke: #f6822a;
      }

      .cls-4, .cls-6 {
        stroke: #fff;
      }

      .cls-5 {
        clip-path: url(#clip-path-2);
      }

      .cls-6, .cls-7 {
        stroke-width: 0.5px;
      }
    </style>
    <clipPath id="clip-path">
      <path id="Path_2353" data-name="Path 2353" class="cls-1" d="M0-22.281H13.8v16.19H0Z" transform="translate(-1.719 20.692)"/>
    </clipPath>
    <clipPath id="clip-path-2">
      <path id="Path_2414" data-name="Path 2414" class="cls-1" d="M0-11.41H7.584v7.146H0Z" transform="translate(0 11.41)"/>
    </clipPath>
  </defs>
  <g id="Group_2196" data-name="Group 2196" transform="translate(-26.542 -575.692)">
    <g id="Group_2178" data-name="Group 2178" transform="translate(28.261 599.562)">
      <g id="Group_2093" data-name="Group 2093" class="cls-2" transform="translate(0 -22.281)">
        <g id="Group_2087" data-name="Group 2087" transform="translate(6.997 9.497)">
          <path id="Path_2347" data-name="Path 2347" class="cls-3" d="M-1.975-2.253V-3.488s-.1-2.316-3.173-2.386" transform="translate(5.148 5.874)"/>
        </g>
        <g id="Group_2088" data-name="Group 2088" transform="translate(0.308 9.642)">
          <path id="Path_2348" data-name="Path 2348" class="cls-3" d="M0-2.163V-3.4S.026-5.568,3.1-5.638a2.268,2.268,0,0,0,1.013.913" transform="translate(0 5.638)"/>
        </g>
        <g id="Group_2089" data-name="Group 2089" transform="translate(2.157 11.268)">
          <path id="Path_2349" data-name="Path 2349" class="cls-4" d="M0,0V1.849"/>
        </g>
        <g id="Group_2090" data-name="Group 2090" transform="translate(7.705 11.268)">
          <path id="Path_2350" data-name="Path 2350" class="cls-4" d="M0,0V1.849"/>
        </g>
        <g id="Group_2091" data-name="Group 2091" transform="translate(5.239 9.838)">
          <path id="Path_2351" data-name="Path 2351" class="cls-4" d="M0-2.424V-5.292A2.057,2.057,0,0,0,1.033-6.32" transform="translate(0 6.32)"/>
        </g>
        <g id="Group_2092" data-name="Group 2092" transform="translate(1.606 0.254)">
          <path id="Path_2352" data-name="Path 2352" class="cls-4" d="M-2.387-.08c-.7-.23-5.42-.865-3.287,5.866.55,1.736,3.314,4.5,5.5.086A7.5,7.5,0,0,0,.258,1.026C.164.694-.422.967-1.08.675-1.939.294-2.029.038-2.387-.08Z" transform="translate(6.224 0.208)"/>
        </g>
      </g>
    </g>
    <g id="Group_2184" data-name="Group 2184" transform="translate(40 593.438)">
      <g id="Group_2183" data-name="Group 2183" class="cls-5" transform="translate(-1.764 -13.196)">
        <g id="Group_2179" data-name="Group 2179" transform="translate(5.482 3.863)">
          <path id="Path_2410" data-name="Path 2410" class="cls-6" d="M0-.678l.806-.6.407.892" transform="translate(0 1.277)"/>
        </g>
        <g id="Group_2180" data-name="Group 2180" transform="translate(1.247 4.001)">
          <path id="Path_2411" data-name="Path 2411" class="cls-6" d="M-5.768,0a2.613,2.613,0,0,1-2.55,2.047A2.612,2.612,0,0,1-10.867,0" transform="translate(10.867)"/>
        </g>
        <g id="Group_2181" data-name="Group 2181" transform="translate(0.959 2.275)">
          <path id="Path_2412" data-name="Path 2412" class="cls-7" d="M-1.372-.331l-.806.6-.407-.892" transform="translate(2.585 0.624)"/>
        </g>
        <g id="Group_2182" data-name="Group 2182" transform="translate(1.307 0.982)">
          <path id="Path_2413" data-name="Path 2413" class="cls-7" d="M0-2.316A2.613,2.613,0,0,1,2.55-4.363,2.612,2.612,0,0,1,5.1-2.316" transform="translate(0 4.363)"/>
        </g>
      </g>
    </g>
  </g>
</svg>
