<svg xmlns="http://www.w3.org/2000/svg" xmlns:xlink="http://www.w3.org/1999/xlink" viewBox="0 0 30.308 36.975"><defs><style>.a,.c,.d{fill:none;}.b{clip-path:url(#a);}.c{stroke:#fff;stroke-width:2px;}.d{stroke:#f6822a;stroke-width:1.5px;}.e{fill:#f6822a;}</style><clipPath id="a"><path class="a" d="M0-30H30.308V6.975H0Z" transform="translate(-1.599 30)"/></clipPath></defs><g transform="translate(-17.883 -358.203)"><g class="b" transform="translate(19.481 358.203)"><path class="c" d="M23.9,2.917H2.5V-27.5H23.9Z" transform="translate(0.316 30.316)"/><g transform="translate(5.633 33.234)"><path class="c" d="M2.4,0H-19" transform="translate(19)"/></g><g transform="translate(0 2.816)"><path class="c" d="M2.4,0H-19" transform="translate(19)"/></g></g><g transform="translate(25.114 368.905)"><path class="d" d="M0,0H15.772"/></g><g transform="translate(25.114 372.285)"><path class="d" d="M0,0H15.772"/></g><g transform="translate(25.114 375.665)"><path class="d" d="M0,0H15.772"/></g><g transform="translate(25.114 379.044)"><path class="d" d="M0,0H15.772"/></g><g transform="translate(25.114 382.424)"><path class="d" d="M0,0H15.772"/></g><g transform="translate(25.114 385.804)"><path class="d" d="M0,0H9.013"/></g><path class="e" d="M7-24.689H18.266V-30H7Z" transform="translate(20.367 388.203)"/></g></svg>