<svg xmlns="http://www.w3.org/2000/svg" xmlns:xlink="http://www.w3.org/1999/xlink" viewBox="0 0 37.417 33.398">
  <defs>
    <style>
      .cls-1, .cls-3, .cls-4 {
        fill: none;
      }

      .cls-2 {
        clip-path: url(#clip-path);
      }

      .cls-3 {
        stroke: #006cb3;
      }

      .cls-3, .cls-4 {
        stroke-width: 2px;
      }

      .cls-4 {
        stroke: #f6822a;
      }
    </style>
    <clipPath id="clip-path">
      <path id="Path_2439" data-name="Path 2439" class="cls-1" d="M0-11.41H37.417v33.4H0Z" transform="translate(0 11.41)"/>
    </clipPath>
  </defs>
  <g id="Group_2288" data-name="Group 2288" transform="translate(0 11.41)">
    <g id="Group_2287" data-name="Group 2287" class="cls-2" transform="translate(0 -11.41)">
      <g id="Group_2283" data-name="Group 2283" transform="translate(29.033 18.871)">
        <path id="Path_2435" data-name="Path 2435" class="cls-3" d="M0,2.461,5.026-1.277,7.567,4.287" transform="translate(0 1.277)"/>
      </g>
      <g id="Group_2284" data-name="Group 2284" transform="translate(2.616 19.729)">
        <path id="Path_2436" data-name="Path 2436" class="cls-3" d="M20.942,0A16.3,16.3,0,0,1,5.036,12.771,16.3,16.3,0,0,1-10.867,0" transform="translate(10.867)"/>
      </g>
      <g id="Group_2285" data-name="Group 2285" transform="translate(0.817 8.962)">
        <path id="Path_2437" data-name="Path 2437" class="cls-4" d="M4.982,1.2-.044,4.94-2.585-.624" transform="translate(2.585 0.624)"/>
      </g>
      <g id="Group_2286" data-name="Group 2286" transform="translate(2.992 0.897)">
        <path id="Path_2438" data-name="Path 2438" class="cls-4" d="M0,8.408a16.289,16.289,0,0,1,31.809,0" transform="translate(0 4.363)"/>
      </g>
    </g>
  </g>
</svg>
