<svg xmlns="http://www.w3.org/2000/svg" xmlns:xlink="http://www.w3.org/1999/xlink" viewBox="0 0 20.579 19.996"><defs><style>.a{fill:none;}.b{clip-path:url(#a);}.c{fill:#006cb3;}.d{fill:#f6822a;}</style><clipPath id="a"><path class="a" d="M0-18.2H20.579v20H0Z" transform="translate(0 18.197)"/></clipPath></defs><g class="b"><g transform="translate(0 3.397)"><path class="c" d="M.156,0,.147,12.343a1.214,1.214,0,0,0,.3.978,2.155,2.155,0,0,0,1.238.235H5.054a3.718,3.718,0,0,1,1.467.245,2.335,2.335,0,0,1,.9.935,2.117,2.117,0,0,1,1.864-1.18h3.835a2.221,2.221,0,0,0,1.265-.235,1.225,1.225,0,0,0,.3-.978L14.68,10.11l1.736,1.781v1.286a2.163,2.163,0,0,1-.666,1.779,3.486,3.486,0,0,1-2.191.547H9.394a1.169,1.169,0,0,0-.781.3,1.477,1.477,0,0,0-.457.8H6.537a1.36,1.36,0,0,0-.514-.844,1.952,1.952,0,0,0-1.1-.253H1.168a3.307,3.307,0,0,1-2.1-.535,2.109,2.109,0,0,1-.652-1.723V12.056L-1.555,0Z" transform="translate(1.58)"/></g><g transform="translate(-0.001 0)"><path class="c" d="M1.464.744l0-5.106a1.213,1.213,0,0,0-.294-.978,2.154,2.154,0,0,0-1.24-.236H-3.439c-2.145,0-2.211.838-2.211.838S-5.8-5.577-7.67-5.577h-3.835a2.219,2.219,0,0,0-1.265.236,1.223,1.223,0,0,0-.3.978l.009.236h-1.7L-14.8-5.2a2.016,2.016,0,0,1,.666-1.778,3.225,3.225,0,0,1,2.192-.548H-7.78c2.2,0,2.164,1.035,2.164,1.035s-.187-1.035,2.3-1.035H.447a3.314,3.314,0,0,1,2.1.535A2.445,2.445,0,0,1,3.2-5.265v6.5Z" transform="translate(14.802 7.524)"/></g><g transform="translate(13.15 7.753)"><path class="d" d="M.668.5-1.908-2.078-.76-3.227l-6-1.815L-4.775.788-3.627-.361-1.05,2.217Z" transform="translate(6.761 5.042)"/></g></g></svg>