<svg xmlns="http://www.w3.org/2000/svg" xmlns:xlink="http://www.w3.org/1999/xlink" viewBox="0 0 16.974 10.656"><defs><style>.a,.c{fill:#f68936;}.b{clip-path:url(#a);}.c{fill-rule:evenodd;}</style><clipPath id="a"><path class="a" d="M0-47.539H16.974v10.656H0Z" transform="translate(0 47.539)"/></clipPath></defs><g transform="translate(-1016.374 -183.539)"><g class="b" transform="translate(1016.374 183.539)"><g transform="translate(0)"><path class="c" d="M-35.006-36.883l2.5-2.291.9-.2,1.152-.349h.851l1-1c-.028-.15.1-.3-.085-.448l.536-1.2-.2-.647-2.191-.01-.063.707-1.752.349.05-1.1.1-.9-.1-.946-1.152-.6-.05-.5-.5-1.1-2.353.4-1.652-.149-.8-.7-1.953.05L-43.017-44l-2.1,2.042,2.4-.05.15.3h1.152l1.152.6,1.4-.2.451.5v1.344l.5.946,1.1.1.5,1Z" transform="translate(45.12 47.539)"/></g></g></g></svg>