<svg xmlns="http://www.w3.org/2000/svg" xmlns:xlink="http://www.w3.org/1999/xlink" viewBox="0 0 17.731 20.707"><defs><style>.a,.c,.d{fill:none;}.b{clip-path:url(#a);}.c{stroke:#f6822a;}.c,.d{stroke-width:0.867px;}.d{stroke:#006cb3;}</style><clipPath id="a"><path class="a" d="M0-13.464H17.731V7.243H0Z" transform="translate(0 13.464)"/></clipPath></defs><g transform="translate(-929 -52.221)"><g class="b" transform="translate(929 52.221)"><g transform="translate(7.143 18.4)"><path class="c" d="M0,0A2.021,2.021,0,0,0,1.984,1.639,2.022,2.022,0,0,0,3.968,0"/></g><g transform="translate(1.332 3.116)"><path class="d" d="M0,4.279s2.505-1.3,2.711-5.329c.109-2.1-.4-6.9,4.837-6.9s4.826,4.788,4.9,6.9A7.252,7.252,0,0,0,15.1,4.279C6.393,8.363,0,4.279,0,4.279Z" transform="translate(0 7.953)"/></g><g transform="translate(7.555 0.666)"><path class="d" d="M.921.857s.272-2.45-1.3-2.45H-.4c-1.569,0-1.3,2.45-1.3,2.45" transform="translate(1.712 1.593)"/></g></g></g></svg>