<svg xmlns="http://www.w3.org/2000/svg" xmlns:xlink="http://www.w3.org/1999/xlink" viewBox="0 0 17.034 17.021">
  <defs>
    <style>
      .cls-1 {
        fill: #fff;
      }

      .cls-2 {
        clip-path: url(#clip-path);
      }

      .cls-3 {
        fill: #0088e2;
      }
    </style>
    <clipPath id="clip-path">
      <path id="Path_1277" data-name="Path 1277" class="cls-1" d="M0-5.352H17.034V11.669H0Z" transform="translate(0 5.352)"/>
    </clipPath>
  </defs>
  <g id="Group_1473" data-name="Group 1473" class="cls-2" transform="translate(0 0)">
    <g id="Group_1472" data-name="Group 1472" transform="translate(-0.001 -0.001)">
      <path id="Path_1276" data-name="Path 1276" class="cls-3" d="M3.245,4.551s2.1-1.355,2.1-2.1c0-1.6-2.942-4.7-4.535-4.535A3.045,3.045,0,0,0-.74-1.1,2.339,2.339,0,0,0-1.465.187s-.69,3.225,5.413,9.331c5.753,5.753,9.331,5.41,9.331,5.41s.337.13,1.3-.836c.83-.827.964-1.03.964-1.431,0-1.6-2.932-4.535-4.538-4.535-.754,0-2.134,2.134-2.134,2.134A9.643,9.643,0,0,1,5.6,7.8a9.46,9.46,0,0,1-2.357-3.25" transform="translate(1.488 2.087)"/>
    </g>
  </g>
</svg>
