<svg xmlns="http://www.w3.org/2000/svg" xmlns:xlink="http://www.w3.org/1999/xlink" viewBox="0 0 25.061 25.333"><defs><style>.a{fill:none;}.b{fill:#f6822a;}.c{clip-path:url(#a);}.d{fill:#006cb3;}</style><clipPath id="a"><path class="a" d="M0-41H17v18.834H0Z" transform="translate(0 41)"/></clipPath></defs><g transform="translate(-1156.971 -250.916)"><g transform="translate(1143.021 282.779) rotate(39)"><g transform="translate(9.187 -33.913)"><path class="b" d="M0-4.769,7.809-3.507V-4.769L0-8.822Z" transform="translate(0 8.822)"/></g><g transform="translate(0 -33.913)"><path class="b" d="M0-4.769v1.263L7.809-4.769V-8.822Z" transform="translate(0 8.822)"/></g><g transform="translate(9.187 -25.185)"><path class="b" d="M0,0,2.3,1.312v.409L0,1.312Z"/></g><g transform="translate(5.512 -25.185)"><path class="b" d="M-2.7,0-5,1.312v.409l2.3-.409Z" transform="translate(5)"/></g><g class="c" transform="translate(0 -41)"><g transform="translate(7.35 0)"><path class="d" d="M-2.236-20.49c-.039.447-.079,1.424-.751,1.424h.034c-.672,0-.749-.972-.792-1.424-.407-4.21-.39-16.032-.39-16.032,0-.508.545-1.378,1.217-1.378h-.068c.672,0,1.148.87,1.148,1.378,0,0-.049,12.045-.4,16.032" transform="translate(4.135 37.9)"/></g></g></g></g></svg>