<svg xmlns="http://www.w3.org/2000/svg" viewBox="0 0 31.656 21.841"><defs><style>.a{fill:#0091c6;}.b{fill:#f6822a;}</style></defs><g transform="translate(-972.851 155.677)"><path class="a" d="M7.995,9.55V3.11H1.554a1.555,1.555,0,0,1,0-3.11h8A1.554,1.554,0,0,1,11.1,1.554v8a1.555,1.555,0,0,1-3.109,0Z" transform="translate(972.851 -141.688) rotate(-45)"/><path class="b" d="M7.995,9.55V3.11H1.554a1.555,1.555,0,0,1,0-3.11h8A1.554,1.554,0,0,1,11.1,1.554v8a1.555,1.555,0,0,1-3.109,0Z" transform="translate(1004.507 -147.826) rotate(135)"/></g></svg>