<svg xmlns="http://www.w3.org/2000/svg" xmlns:xlink="http://www.w3.org/1999/xlink" viewBox="0 0 27.461 18.31">
  <defs>
    <style>
      .cls-1, .cls-4 {
        fill: none;
      }

      .cls-2 {
        clip-path: url(#clip-path);
      }

      .cls-3 {
        fill: #fff;
      }

      .cls-4 {
        stroke: #fff;
      }
    </style>
    <clipPath id="clip-path">
      <path id="Path_2291" data-name="Path 2291" class="cls-1" d="M0-10.477H18.233V7.746H0Z" transform="translate(0 10.477)"/>
    </clipPath>
  </defs>
  <g id="Group_1993" data-name="Group 1993" transform="translate(-144.947 -3187.477)">
    <g id="Group_1991" data-name="Group 1991" transform="translate(144.947 3197.953)">
      <g id="Group_1990" data-name="Group 1990" class="cls-2" transform="translate(0 -10.477)">
        <g id="Group_1989" data-name="Group 1989" transform="translate(0 0.001)">
          <path id="Path_2290" data-name="Path 2290" class="cls-3" d="M2.153,3.02S4.4,1.57,4.4.778C4.4-.938,1.247-4.259-.459-4.078A3.261,3.261,0,0,0-2.111-3.026,2.5,2.5,0,0,0-2.887-1.65S-3.628,1.8,2.906,8.337c6.159,6.159,9.987,5.794,9.987,5.794s.364.139,1.4-.9c.887-.887,1.03-1.1,1.03-1.532,0-1.717-3.139-4.856-4.856-4.856-.807,0-2.284,2.285-2.284,2.285A10.338,10.338,0,0,1,4.675,6.5,10.137,10.137,0,0,1,2.153,3.02" transform="translate(2.913 4.085)"/>
        </g>
      </g>
    </g>
    <g id="Group_1992" data-name="Group 1992" transform="translate(101.975 -72.023)">
      <line id="Line_447" data-name="Line 447" class="cls-4" y2="4.6" transform="translate(66.975 3268.5)"/>
      <path id="Union_145" data-name="Union 145" class="cls-4" d="M.209,4.391h0v0h0v0Z" transform="translate(63.722 3274.146) rotate(-45)"/>
    </g>
  </g>
</svg>
