<svg xmlns="http://www.w3.org/2000/svg" xmlns:xlink="http://www.w3.org/1999/xlink" viewBox="0 0 35.656 40.696">
  <defs>
    <style>
      .cls-1, .cls-3 {
        fill: none;
      }

      .cls-2 {
        fill: #f6822a;
      }

      .cls-3 {
        stroke: #006cb3;
        stroke-width: 2px;
      }

      .cls-4 {
        clip-path: url(#clip-path);
      }

      .cls-5 {
        fill: #0070ae;
      }

      .cls-6 {
        clip-path: url(#clip-path-2);
      }
    </style>
    <clipPath id="clip-path">
      <path id="Path_2157" data-name="Path 2157" class="cls-1" d="M0-28H35.656V12.7H0Z" transform="translate(0 28)"/>
    </clipPath>
    <clipPath id="clip-path-2">
      <path id="Path_2322" data-name="Path 2322" class="cls-1" d="M0-23.467H20.136v9.913H0Z" transform="translate(0 23.467)"/>
    </clipPath>
  </defs>
  <g id="Group_2046" data-name="Group 2046" transform="translate(-1198.521 -1687.367)">
    <g id="Group_1779" data-name="Group 1779" transform="translate(1223.718 1690.739)">
      <path id="Path_2165" data-name="Path 2165" class="cls-2" d="M1.6,1.337H-4V-4Z" transform="translate(4 4)"/>
    </g>
    <g id="Group_2008" data-name="Group 2008">
      <g id="Group_1780" data-name="Group 1780" transform="translate(1228.28 1696.076)">
        <path id="Path_2166" data-name="Path 2166" class="cls-3" d="M0,13.594V-12" transform="translate(0 12)"/>
      </g>
      <g id="Group_2007" data-name="Group 2007">
        <g id="Group_1771" data-name="Group 1771" class="cls-4" transform="translate(1198.521 1687.367)">
          <g id="Group_1768" data-name="Group 1768" transform="translate(4.993 4.364)">
            <path id="Path_2154" data-name="Path 2154" class="cls-3" d="M5.767,5.67v4.344H-19V-23.5H1.2" transform="translate(19 23.5)"/>
          </g>
          <g id="Group_1769" data-name="Group 1769" transform="translate(1.734 4.364)">
            <path id="Path_2155" data-name="Path 2155" class="cls-3" d="M5.464,0H-18" transform="translate(18)"/>
          </g>
          <g id="Group_1770" data-name="Group 1770" transform="translate(8.251 37.879)">
            <path id="Path_2156" data-name="Path 2156" class="cls-3" d="M5.767,0H-19" transform="translate(19)"/>
          </g>
        </g>
      </g>
    </g>
    <g id="Group_2045" data-name="Group 2045" transform="translate(1205.773 1726.934)">
      <g id="Group_2041" data-name="Group 2041" transform="translate(0 -23.281)">
        <path id="Path_2319" data-name="Path 2319" class="cls-5" d="M-7.868,0-9.786,3.236-11.612,0h-1.639l2.629,4.56-3,4.994h1.634L-9.811,5.9l2.116,3.657H-6.08L-8.969,4.56-6.216,0Z" transform="translate(13.623)"/>
      </g>
      <g id="Group_2042" data-name="Group 2042" transform="translate(8.83 -23.281)">
        <path id="Path_2320" data-name="Path 2320" class="cls-5" d="M0,0V9.554H4.252V8.2H1.442V0Z"/>
      </g>
      <g id="Group_2044" data-name="Group 2044" class="cls-6" transform="translate(0 -23.467)">
        <g id="Group_2043" data-name="Group 2043" transform="translate(14.01 0)">
          <path id="Path_2321" data-name="Path 2321" class="cls-5" d="M-8.037-2.2l-1.17.693a2,2,0,0,0-.624-.743,1.457,1.457,0,0,0-.8-.2,1.473,1.473,0,0,0-1,.34,1.055,1.055,0,0,0-.4.841q0,.7,1.04,1.126l.953.39A4.069,4.069,0,0,1-8.328,1.4,2.589,2.589,0,0,1-7.79,3.06a2.918,2.918,0,0,1-.879,2.178,3.016,3.016,0,0,1-2.2.866,2.94,2.94,0,0,1-2.055-.737,3.389,3.389,0,0,1-1-2.072l1.46-.322a2.487,2.487,0,0,0,.346,1.163,1.5,1.5,0,0,0,1.3.619A1.509,1.509,0,0,0-9.69,4.3a1.563,1.563,0,0,0,.446-1.144,1.621,1.621,0,0,0-.077-.511,1.309,1.309,0,0,0-.242-.427,1.934,1.934,0,0,0-.424-.365,4.1,4.1,0,0,0-.619-.325l-.922-.384a2.655,2.655,0,0,1-1.962-2.426,2.3,2.3,0,0,1,.823-1.8,2.974,2.974,0,0,1,2.048-.73A2.861,2.861,0,0,1-8.037-2.2" transform="translate(13.916 3.809)"/>
        </g>
      </g>
    </g>
  </g>
</svg>
