<svg xmlns="http://www.w3.org/2000/svg" width="16.965" height="16.965" viewBox="0 0 16.965 16.965">
  <g id="add" transform="translate(37.319 -159.663) rotate(45)">
    <g id="Grupo_2691" data-name="Grupo 2691" transform="translate(92.51 133.288)">
      <path id="Caminho_2754" data-name="Caminho 2754" d="M198.264,372.773a1,1,0,0,0-1.427,0l-4.271,4.281-4.271-4.271a1.009,1.009,0,0,0-1.427,1.427l4.271,4.271-4.271,4.271a1,1,0,0,0,0,1.427,1.009,1.009,0,0,0,1.427,0l4.271-4.271,4.271,4.271a1.009,1.009,0,0,0,1.427,0,1,1,0,0,0,0-1.427l-4.271-4.271,4.271-4.271A1.015,1.015,0,0,0,198.264,372.773Z" transform="translate(-186.57 -372.475)" fill="#fff"/>
    </g>
  </g>
</svg>
