<svg xmlns="http://www.w3.org/2000/svg" width="11.591" height="14.786" viewBox="0 0 11.591 14.786">
  <g id="ajuste_financeiro" transform="translate(0.183 -2.187)">
    <g id="Grupo_2687" data-name="Grupo 2687" transform="translate(0 5.563)">
      <path id="Caminho_2744" data-name="Caminho 2744" d="M7.5,123.648l.735-.3a.77.77,0,0,0,.417-1l-.189-.456a4.678,4.678,0,0,0,.966-.966l.456.189a.769.769,0,0,0,1-.417l.306-.735a.769.769,0,0,0-.417-1l-.675-.279a.3.3,0,1,0-.225.549l.675.279a.178.178,0,0,1,.1.231l-.306.735a.177.177,0,0,1-.1.1.175.175,0,0,1-.135,0l-.675-.279a.3.3,0,0,0-.36.108,4.065,4.065,0,0,1-1.143,1.143.3.3,0,0,0-.111.36l.279.675a.179.179,0,0,1-.1.231l-.735.3a.177.177,0,0,1-.231-.1l-.279-.675a.292.292,0,0,0-.333-.177,4.115,4.115,0,0,1-1.613,0,.3.3,0,0,0-.333.177l-.279.675a.178.178,0,0,1-.231.1L3.24,122.8a.177.177,0,0,1-.1-.231l.279-.675a.3.3,0,0,0-.108-.36,4.065,4.065,0,0,1-1.143-1.143.3.3,0,0,0-.36-.111l-.675.279a.177.177,0,0,1-.231-.1l-.3-.735a.177.177,0,0,1,.1-.231l.675-.279a.3.3,0,0,0,.177-.333,4.115,4.115,0,0,1,0-1.613.3.3,0,0,0-.177-.333L.7,116.658a.178.178,0,0,1-.1-.231l.306-.735a.178.178,0,0,1,.231-.1l.675.279a.3.3,0,0,0,.36-.108,4.065,4.065,0,0,1,1.143-1.143.3.3,0,0,0,.111-.36l-.279-.675a.177.177,0,0,1,.1-.231l.735-.3a.177.177,0,0,1,.231.1l.279.675a.3.3,0,1,0,.549-.225l-.279-.675a.768.768,0,0,0-.417-.417.78.78,0,0,0-.294-.06.769.769,0,0,0-.294.06l-.735.3a.769.769,0,0,0-.417,1l.189.456a4.679,4.679,0,0,0-.966.966l-.456-.189a.769.769,0,0,0-1,.417l-.309.735a.769.769,0,0,0,.417,1l.456.189a4.728,4.728,0,0,0,0,1.365l-.456.189a.769.769,0,0,0-.417,1l.3.735a.769.769,0,0,0,1,.417l.456-.189a4.678,4.678,0,0,0,.966.966l-.189.456a.769.769,0,0,0,.417,1l.735.306a.769.769,0,0,0,1-.417l.189-.456a4.728,4.728,0,0,0,1.365,0l.189.456a.769.769,0,0,0,1,.417Z" transform="translate(0 -112.45)" fill="#fff" stroke="#fff" stroke-width="0.3"/>
      <path id="Caminho_2745" data-name="Caminho 2745" d="M107.148,222.082a2.417,2.417,0,0,0,2.414,2.4h.018a2.417,2.417,0,0,0,2.4-2.432.3.3,0,0,0-.3-.294h0a.294.294,0,0,0-.294.3,1.823,1.823,0,0,1-1.808,1.835h-.012a1.822,1.822,0,0,1-.012-3.644.294.294,0,0,0,.294-.3.3.3,0,0,0-.3-.294h0A2.417,2.417,0,0,0,107.148,222.082Z" transform="translate(-103.935 -216.435)" fill="#fff" stroke="#fff" stroke-width="0.3"/>
    </g>
    <g id="user-14" transform="translate(6.999 2.187)">
      <g id="Grupo_2678" data-name="Grupo 2678" transform="translate(0)">
        <path id="Caminho_2718" data-name="Caminho 2718" d="M202.247,328.2a.482.482,0,0,0-.484.484v.636h-.054a1.658,1.658,0,1,0,0,3.317h1.076a.69.69,0,1,1,0,1.38h-1.928a.484.484,0,0,0,0,.969h.905v.651a.484.484,0,1,0,.969,0v-.651h.054a1.658,1.658,0,1,0,0-3.317h-1.076a.69.69,0,0,1,0-1.38H203.6a.484.484,0,1,0,0-.969h-.871v-.636A.482.482,0,0,0,202.247,328.2Z" transform="translate(-200.05 -328.2)" fill="#fff"/>
      </g>
    </g>
  </g>
</svg>
