<svg xmlns="http://www.w3.org/2000/svg" width="14.277" height="13.613" viewBox="0 0 14.277 13.613">
  <path id="calendario" d="M.347,11.435A.329.329,0,0,1,0,11.125V-.556a.329.329,0,0,1,.347-.31H3.324v-.812h.9v.812H9.339v-.812h.9v.812H13.43a.329.329,0,0,1,.347.31V11.125a.329.329,0,0,1-.347.31Zm.245-.62h12.54V2.832H.592Zm12.54-8.865v-2.2H10.239V.321h-.9V-.247H4.224V.321h-.9V-.248H.592v2.2ZM3.291,8.833V7.949h7v.884Zm0-3V4.949h7v.884Z" transform="translate(0.25 1.929)" fill="#fff" stroke="#fff" stroke-width="0.5"/>
</svg>
