<svg xmlns="http://www.w3.org/2000/svg" width="23.992" height="23.984" viewBox="0 0 23.992 23.984">
  <g id="configuracao" transform="translate(-12.395 -17.736)">
    <g id="Grupo_2675" data-name="Grupo 2675" transform="translate(12.395 17.737)">
      <path id="Caminho_2711" data-name="Caminho 2711" d="M185.483,182.629a5.259,5.259,0,0,0,2.012,10.116,5.127,5.127,0,0,0,2.012-.4,5.256,5.256,0,1,0-4.023-9.712Zm5.359,3.471a3.628,3.628,0,0,1-1.962,4.741,3.646,3.646,0,0,1-1.385.28,3.63,3.63,0,0,1-1.385-6.983,3.606,3.606,0,0,1,4.733,1.962Z" transform="translate(-175.503 -175.489)" fill="#fff"/>
      <path id="Caminho_2712" data-name="Caminho 2712" d="M114.2,101.646l-.338.816a9.906,9.906,0,0,0-2.614,0l-.338-.816a1.807,1.807,0,0,0-2.366-.973l-1.542.635a1.811,1.811,0,0,0-.981,2.366l.338.816a10.043,10.043,0,0,0-1.847,1.847L103.7,106a1.807,1.807,0,0,0-2.366.973l-.635,1.542a1.811,1.811,0,0,0,.981,2.366l.816.338a9.907,9.907,0,0,0,0,2.614l-.816.338a1.811,1.811,0,0,0-.981,2.366l.635,1.542a1.807,1.807,0,0,0,2.366.973l.816-.338a10.044,10.044,0,0,0,1.847,1.847l-.338.816a1.8,1.8,0,0,0,.981,2.358l1.542.635a1.807,1.807,0,0,0,2.366-.973l.338-.816a9.906,9.906,0,0,0,2.614,0l.338.816a1.807,1.807,0,0,0,2.366.973l1.542-.635a1.811,1.811,0,0,0,.981-2.366l-.338-.816A10.043,10.043,0,0,0,120.6,118.7l.816.338a1.823,1.823,0,0,0,.693.14h0a1.807,1.807,0,0,0,1.674-1.113l.635-1.542a1.811,1.811,0,0,0-.981-2.366l-.816-.338a9.906,9.906,0,0,0,0-2.614l.816-.338a1.811,1.811,0,0,0,.981-2.366l-.635-1.542a1.807,1.807,0,0,0-2.366-.973l-.816.338a10.043,10.043,0,0,0-1.847-1.847l.338-.816a1.811,1.811,0,0,0-.981-2.366l-1.542-.635a1.823,1.823,0,0,0-.693-.14A1.8,1.8,0,0,0,114.2,101.646Zm.923,2.036.585-1.418a.17.17,0,0,1,.165-.107.194.194,0,0,1,.066.016l1.542.635a.157.157,0,0,1,.091.091.147.147,0,0,1,0,.132l-.585,1.418a.814.814,0,0,0,.3.989,8.441,8.441,0,0,1,2.342,2.342.821.821,0,0,0,.989.305l1.418-.585a.194.194,0,0,1,.066-.016.17.17,0,0,1,.165.107l.635,1.542a.187.187,0,0,1-.091.231l-1.418.585a.812.812,0,0,0-.486.915,8.461,8.461,0,0,1,0,3.314.827.827,0,0,0,.486.915l1.418.585a.157.157,0,0,1,.091.091.147.147,0,0,1,0,.132l-.635,1.542a.17.17,0,0,1-.165.107.194.194,0,0,1-.066-.016l-1.418-.585a.814.814,0,0,0-.989.3,8.442,8.442,0,0,1-2.342,2.342.821.821,0,0,0-.305.989l.585,1.418a.144.144,0,0,1,0,.132.156.156,0,0,1-.1.091l-1.542.635a.194.194,0,0,1-.066.016.17.17,0,0,1-.165-.107l-.585-1.418a.812.812,0,0,0-.75-.5,1.011,1.011,0,0,0-.157.016,8.622,8.622,0,0,1-3.314,0,.827.827,0,0,0-.915.486l-.585,1.418a.17.17,0,0,1-.165.107.194.194,0,0,1-.066-.016l-1.542-.635a.169.169,0,0,1-.091-.231l.585-1.418a.814.814,0,0,0-.3-.989,8.441,8.441,0,0,1-2.342-2.342.821.821,0,0,0-.989-.305l-1.418.585a.194.194,0,0,1-.066.016.17.17,0,0,1-.165-.107l-.635-1.542a.144.144,0,0,1,0-.132.163.163,0,0,1,.091-.091l1.418-.585a.812.812,0,0,0,.486-.915,8.462,8.462,0,0,1,0-3.314.827.827,0,0,0-.486-.915l-1.418-.585a.157.157,0,0,1-.091-.091.147.147,0,0,1,0-.132l.635-1.542a.17.17,0,0,1,.165-.107.194.194,0,0,1,.066.016l1.418.585a.814.814,0,0,0,.989-.3,8.442,8.442,0,0,1,2.342-2.342.821.821,0,0,0,.305-.989l-.585-1.418a.144.144,0,0,1,0-.132.19.19,0,0,1,.1-.1l1.542-.635a.194.194,0,0,1,.066-.016.17.17,0,0,1,.165.107l.585,1.418a.817.817,0,0,0,.915.486,8.621,8.621,0,0,1,3.314,0A.8.8,0,0,0,115.126,103.683Z" transform="translate(-100.562 -100.525)" fill="#fff"/>
    </g>
  </g>
</svg>
