<svg xmlns="http://www.w3.org/2000/svg" width="9.765" height="12.616" viewBox="0 0 9.765 12.616">
  <g id="contrato" transform="translate(0.25 19.522)">
    <g id="Grupo_2681" data-name="Grupo 2681" transform="translate(0 -19.272)">
      <path id="Caminho_2730" data-name="Caminho 2730" d="M103.347,10.039V.26c0-.144-.083-.26-.188-.26H96.088c-.1,0-.188.115-.188.26v9.78c0,.144.083.26.188.26h7.072C103.263,10.3,103.347,10.184,103.347,10.039Zm-.375-.26h-6.7V.519h6.7V9.78Z" transform="translate(-94.082 0)" fill="#fff" stroke="#fff" stroke-width="0.5"/>
      <path id="Caminho_2731" data-name="Caminho 2731" d="M.188,103.347H7.259a.188.188,0,0,0,0-.375H.375V96.088a.188.188,0,0,0-.375,0v7.072A.187.187,0,0,0,.188,103.347Z" transform="translate(0 -91.23)" fill="#fff" stroke="#fff" stroke-width="0.5"/>
    </g>
  </g>
</svg>
