<svg xmlns="http://www.w3.org/2000/svg" width="13.708" height="15.487" viewBox="0 0 13.708 15.487">
  <g id="download" transform="translate(-28.65 0.2)">
    <g id="Grupo_2695" data-name="Grupo 2695" transform="translate(28.85)">
      <path id="Caminho_2756" data-name="Caminho 2756" d="M147.129,0a.3.3,0,0,0-.305.305V11.4l-2.278-2.278a.305.305,0,1,0-.431.431l2.8,2.8a.305.305,0,0,0,.431,0l2.8-2.8a.305.305,0,0,0-.431-.431L147.435,11.4V.305A.3.3,0,0,0,147.129,0Z" transform="translate(-140.475)" fill="#fff" stroke="#fff" stroke-width="0.4"/>
      <path id="Caminho_2757" data-name="Caminho 2757" d="M29.155,366.9a.3.3,0,0,0-.305.305v3.168a.3.3,0,0,0,.305.305h12.7a.3.3,0,0,0,.305-.305v-3.168a.305.305,0,0,0-.61,0v2.863H29.46v-2.863A.3.3,0,0,0,29.155,366.9Z" transform="translate(-28.85 -355.592)" fill="#fff" stroke="#fff" stroke-width="0.4"/>
    </g>
  </g>
</svg>
