<svg xmlns="http://www.w3.org/2000/svg" width="17.731" height="17.733" viewBox="0 0 17.731 17.733">
  <g id="editar" transform="translate(-106.957 -120.562) rotate(45)">
    <g id="Grupo_2697" data-name="Grupo 2697" transform="translate(170.5)">
      <path id="Caminho_2764" data-name="Caminho 2764" d="M170.5,125.342a.387.387,0,0,0,.079.236l2.531,3.317a.391.391,0,0,0,.621,0l2.531-3.317a.387.387,0,0,0,.079-.236V114.689a.389.389,0,0,0-.778,0v10.524l-2.142,2.806-2.142-2.806v-10.5a.389.389,0,0,0-.778,0v10.634Z" transform="translate(-170.5 -109.808)" fill="#fff"/>
      <path id="Caminho_2765" data-name="Caminho 2765" d="M234.9,115.189v9.785a.389.389,0,1,0,.778,0v-9.785a.389.389,0,0,0-.778,0Z" transform="translate(-232.369 -110.289)" fill="#fff"/>
      <path id="Caminho_2766" data-name="Caminho 2766" d="M170.5,1.529V3.269a.387.387,0,0,0,.389.389h5.057a.387.387,0,0,0,.389-.389V1.529A1.53,1.53,0,0,0,174.807,0h-2.778A1.53,1.53,0,0,0,170.5,1.529Zm5.061,0V2.88h-4.283V1.529a.753.753,0,0,1,.751-.751h2.778A.751.751,0,0,1,175.561,1.529Z" transform="translate(-170.5)" fill="#fff"/>
    </g>
  </g>
</svg>
