<svg xmlns="http://www.w3.org/2000/svg" width="19.03" height="19.175" viewBox="0 0 19.03 19.175">
  <g id="expandir_parametro" transform="translate(9759.844 -5472.453)">
    <g id="next" transform="translate(-9747.55 5487.22) rotate(135)">
      <g id="Grupo_2690" data-name="Grupo 2690" transform="translate(0 0)">
        <path id="Caminho_2752" data-name="Caminho 2752" d="M.194,10.961a.655.655,0,0,0,.927,0l4.92-4.92a.655.655,0,0,0,0-.927L1.121.194a.656.656,0,0,0-.927.927L4.65,5.577.194,10.034A.664.664,0,0,0,.194,10.961Z" transform="translate(0)" fill="#fff"/>
      </g>
    </g>
    <g id="next-2" data-name="next" transform="translate(-9753.107 5476.86) rotate(-45)">
      <g id="Grupo_2690-2" data-name="Grupo 2690" transform="translate(0 0)">
        <path id="Caminho_2752-2" data-name="Caminho 2752" d="M.194,10.961a.655.655,0,0,0,.927,0l4.92-4.92a.655.655,0,0,0,0-.927L1.121.194a.656.656,0,0,0-.927.927L4.65,5.577.194,10.034A.664.664,0,0,0,.194,10.961Z" transform="translate(0)" fill="#fff"/>
      </g>
    </g>
  </g>
</svg>
