<svg xmlns="http://www.w3.org/2000/svg" width="26.625" height="34.667" viewBox="0 0 26.625 34.667">
  <g id="exportar_XLS" transform="translate(0.25 0.25)">
    <g id="Grupo_2681" data-name="Grupo 2681" transform="translate(0 0)">
      <path id="Caminho_2730" data-name="Caminho 2730" d="M95.9,28.31V.732c0-.407.235-.732.529-.732H116.37c.294,0,.529.325.529.732V28.31c0,.407-.235.732-.529.732H96.429C96.135,29.042,95.9,28.717,95.9,28.31Zm1.058-.732h18.883V1.464H96.958V27.578Z" transform="translate(-95.9 0)" fill="#fff" stroke="#fff" stroke-width="0.5"/>
      <path id="Caminho_2731" data-name="Caminho 2731" d="M20.47,116.9H.529a.529.529,0,0,1,0-1.058H19.941V96.429a.529.529,0,0,1,1.058,0V116.37A.527.527,0,0,1,20.47,116.9Z" transform="translate(5.126 -82.732)" fill="#fff" stroke="#fff" stroke-width="0.5"/>
    </g>
    <g id="Grupo_2696" data-name="Grupo 2696" transform="translate(217.866 -352.323)">
      <path id="Caminho_2758" data-name="Caminho 2758" d="M-211.912,366.42l-1.485-2.576h.926l1.031,1.828,1.083-1.828h.934l-1.555,2.576,1.632,2.82h-.912l-1.2-2.065-1.23,2.065h-.923Z" transform="translate(0 -0.1)" fill="#fff"/>
      <path id="Caminho_2759" data-name="Caminho 2759" d="M-201.638,363.844v4.63h1.586v.765h-2.4v-5.4Z" transform="translate(-5.452 -0.1)" fill="#fff"/>
      <path id="Caminho_2760" data-name="Caminho 2760" d="M-192.011,364.547l-.661.392a1.137,1.137,0,0,0-.353-.42.823.823,0,0,0-.451-.111.83.83,0,0,0-.562.192.6.6,0,0,0-.224.475q0,.395.587.636l.538.22a2.294,2.294,0,0,1,.961.648,1.46,1.46,0,0,1,.3.939,1.649,1.649,0,0,1-.5,1.23,1.7,1.7,0,0,1-1.24.489,1.659,1.659,0,0,1-1.16-.416,1.914,1.914,0,0,1-.563-1.171l.825-.181a1.394,1.394,0,0,0,.2.657.847.847,0,0,0,.734.35.852.852,0,0,0,.632-.255.882.882,0,0,0,.252-.647.907.907,0,0,0-.044-.288.741.741,0,0,0-.136-.241,1.09,1.09,0,0,0-.24-.206,2.269,2.269,0,0,0-.349-.184l-.521-.217a1.5,1.5,0,0,1-1.108-1.37,1.3,1.3,0,0,1,.465-1.017,1.682,1.682,0,0,1,1.157-.412A1.615,1.615,0,0,1-192.011,364.547Z" transform="translate(-8.933 0)" fill="#fff"/>
    </g>
  </g>
</svg>
