<svg xmlns="http://www.w3.org/2000/svg" width="11.745" height="18.012" viewBox="0 0 11.745 18.012">
  <g id="fatura_fechada" transform="translate(-9.622 -22.429)">
    <g id="Grupo_2680" data-name="Grupo 2680" transform="translate(9.622 26.47)">
      <path id="Subtração_6" data-name="Subtração 6" d="M11.153,13.971H.592A.593.593,0,0,1,0,13.378V6.563a.593.593,0,0,1,.592-.592H1.939V3.937A3.941,3.941,0,0,1,5.875,0c.081,0,.163,0,.244.007V1.2c-.078-.007-.16-.011-.244-.011A2.755,2.755,0,0,0,3.123,3.937H3.13V5.971h5.5V4.5H9.806v1.47h1.346a.593.593,0,0,1,.592.592v6.821A.593.593,0,0,1,11.153,13.971ZM1.185,7.15V12.78h9.382V7.15Z" transform="translate(0 0)" fill="#fff"/>
    </g>
    <g id="user-14" transform="translate(17.25 22.429)">
      <g id="Grupo_2678" data-name="Grupo 2678" transform="translate(0)">
        <path id="Caminho_2718" data-name="Caminho 2718" d="M201.993,328.2a.427.427,0,0,0-.429.428v.563h-.048a1.467,1.467,0,0,0,0,2.935h.952a.61.61,0,1,1,0,1.221h-1.705a.429.429,0,0,0,0,.857h.8v.576a.429.429,0,1,0,.857,0V334.2h.048a1.467,1.467,0,1,0,0-2.935h-.952a.61.61,0,0,1,0-1.221h1.675a.429.429,0,1,0,0-.857h-.77v-.563A.427.427,0,0,0,201.993,328.2Z" transform="translate(-200.05 -328.2)" fill="#fff"/>
      </g>
    </g>
  </g>
</svg>
