<svg id="faturamento" xmlns="http://www.w3.org/2000/svg" width="24" height="24" viewBox="0 0 24 24">
  <g id="Grupo_2679" data-name="Grupo 2679" transform="translate(0 0)">
    <path id="Caminho_2719" data-name="Caminho 2719" d="M201.7,346.2a.48.48,0,0,0-.482.482v2.146a2.2,2.2,0,1,0,.963,0v-2.146A.48.48,0,0,0,201.7,346.2Zm1.236,4.773a1.236,1.236,0,1,1-1.236-1.236h0A1.238,1.238,0,0,1,202.935,350.973Z" transform="translate(-189.699 -329.168)" fill="#fff"/>
    <path id="Caminho_2720" data-name="Caminho 2720" d="M201.7,6.968a.48.48,0,0,0,.482-.482V4.34a2.2,2.2,0,1,0-.963,0V6.486A.48.48,0,0,0,201.7,6.968Zm-1.236-4.773A1.236,1.236,0,1,1,201.7,3.43h0A1.238,1.238,0,0,1,200.463,2.194Z" transform="translate(-189.699 0)" fill="#fff"/>
    <path id="Caminho_2721" data-name="Caminho 2721" d="M348.828,202.181a2.2,2.2,0,1,0,0-.963h-2.146a.482.482,0,0,0,0,.963Zm.91-.482a1.236,1.236,0,1,1,1.236,1.236,1.238,1.238,0,0,1-1.236-1.236Z" transform="translate(-329.168 -189.699)" fill="#fff"/>
    <path id="Caminho_2722" data-name="Caminho 2722" d="M0,201.7a2.2,2.2,0,0,0,4.34.482H6.486a.482.482,0,0,0,0-.963H4.34A2.2,2.2,0,0,0,0,201.7Zm3.43,0a1.236,1.236,0,1,1-1.236-1.236A1.238,1.238,0,0,1,3.43,201.7Z" transform="translate(0 -189.699)" fill="#fff"/>
    <path id="Caminho_2723" data-name="Caminho 2723" d="M313.717,313.705a.479.479,0,0,0,0,.681l1.518,1.518a2.194,2.194,0,0,0,3.406,2.725,2.2,2.2,0,0,0-2.725-3.411L314.4,313.7A.483.483,0,0,0,313.717,313.705Zm2.5,2.5h0a1.239,1.239,0,1,1-.36.876A1.2,1.2,0,0,1,316.218,316.206Z" transform="translate(-298.13 -298.118)" fill="#fff"/>
    <path id="Caminho_2724" data-name="Caminho 2724" d="M62.247,59.142a2.2,2.2,0,1,0-.38,3.406l1.518,1.518a.482.482,0,0,0,.681,0,.479.479,0,0,0,0-.681l-1.518-1.518a2.168,2.168,0,0,0,.341-1.173A2.139,2.139,0,0,0,62.247,59.142Zm-.681,2.423h0a1.233,1.233,0,1,1,.36-.871A1.2,1.2,0,0,1,61.565,61.565Z" transform="translate(-55.653 -55.653)" fill="#fff"/>
    <path id="Caminho_2725" data-name="Caminho 2725" d="M314.795,60.6a2.186,2.186,0,0,0,.341,1.173l-1.518,1.518a.479.479,0,0,0,0,.681.482.482,0,0,0,.681,0l1.523-1.518a2.193,2.193,0,0,0,2.725-.3,2.2,2.2,0,0,0-1.552-3.752,2.2,2.2,0,0,0-2.2,2.2Zm1.328-.871a1.233,1.233,0,1,1,0,1.747h0a1.226,1.226,0,0,1-.36-.871A1.193,1.193,0,0,1,316.123,59.728Z" transform="translate(-298.035 -55.558)" fill="#fff"/>
    <path id="Caminho_2726" data-name="Caminho 2726" d="M64.067,313.717a.479.479,0,0,0-.681,0l-1.518,1.518a2.194,2.194,0,1,0,.38,3.406,2.2,2.2,0,0,0,.3-2.73l1.518-1.518A.473.473,0,0,0,64.067,313.717Zm-2.5,4.243a1.231,1.231,0,1,1,0-1.742h0A1.231,1.231,0,0,1,61.565,317.96Z" transform="translate(-55.653 -298.13)" fill="#fff"/>
    <path id="Caminho_2727" data-name="Caminho 2727" d="M199.808,164.974h1.114a.742.742,0,0,1,0,1.484h-2a.482.482,0,0,0,0,.963h.968v.7a.482.482,0,1,0,.963,0v-.7h.078a1.705,1.705,0,1,0,0-3.411h-1.114a.74.74,0,0,1,0-1.479h1.966a.482.482,0,1,0,0-.963h-.929v-.686a.482.482,0,1,0-.963,0v.686h-.078a1.7,1.7,0,1,0,0,3.406Z" transform="translate(-188.367 -152.502)" fill="#fff"/>
  </g>
</svg>
