<svg xmlns="http://www.w3.org/2000/svg" width="12" height="9.295" viewBox="0 0 12 9.295">
  <g id="fila" transform="translate(-73 -11.785)">
    <g id="Grupo_2682" data-name="Grupo 2682" transform="translate(73)">
      <path id="Caminho_2737" data-name="Caminho 2737" d="M109.865,401.431h9.265a.365.365,0,0,0,0-.731h-9.265a.364.364,0,0,0-.365.365A.369.369,0,0,0,109.865,401.431Z" transform="translate(-108.5 -385.915)" fill="#fff"/>
      <path id="Caminho_2740" data-name="Caminho 2740" d="M109.939,401.431h11.123a.371.371,0,1,0,0-.731H109.939a.405.405,0,0,0-.439.365A.411.411,0,0,0,109.939,401.431Z" transform="translate(-109.5 -388.915)" fill="#fff"/>
      <path id="Caminho_2738" data-name="Caminho 2738" d="M161.7,470.565a.4.4,0,0,0-.434-.365h-7.133a.371.371,0,1,0,0,.731h7.137A.4.4,0,0,0,161.7,470.565Z" transform="translate(-151.7 -452.851)" fill="#fff"/>
      <path id="Caminho_2739" data-name="Caminho 2739" d="M159.7,470.565a.346.346,0,0,0-.325-.365h-5.349a.368.368,0,0,0,0,.731h5.353A.348.348,0,0,0,159.7,470.565Z" transform="translate(-150.7 -449.851)" fill="#fff"/>
    </g>
  </g>
</svg>
