<svg xmlns="http://www.w3.org/2000/svg" width="16.626" height="10.956" viewBox="0 0 16.626 10.956">
  <g id="fornecedor" transform="translate(0 -83.528)">
    <g id="Grupo_2688" data-name="Grupo 2688" transform="translate(0 83.528)">
      <path id="Caminho_2746" data-name="Caminho 2746" d="M.034,89.2a.329.329,0,0,0,.193.17l2.124.73a.3.3,0,0,0,.109.017.338.338,0,0,0,.319-.227L4.446,85.03l.085.031a1.723,1.723,0,0,0,1.324-.075l.207-.1a1.041,1.041,0,0,1,.794-.048l3.876,1.337a.749.749,0,0,1-.255.417.8.8,0,0,1-.713,0L8.026,86a.336.336,0,0,0-.268.024.344.344,0,0,0-.166.21,2.314,2.314,0,0,1-1,1.31,2.174,2.174,0,0,1-1.765.024.337.337,0,1,0-.217.638,3.589,3.589,0,0,0,1.154.21,2.4,2.4,0,0,0,1.15-.282,2.828,2.828,0,0,0,1.2-1.388l1.425.489a1.418,1.418,0,0,0,1.313-.085,1.588,1.588,0,0,0,.58-1.184.344.344,0,0,0-.227-.329L7.069,84.2a1.721,1.721,0,0,0-1.31.081l-.207.1a1.051,1.051,0,0,1-.8.048L4.4,84.313a.225.225,0,0,0-.064-.031l-2.114-.736a.336.336,0,0,0-.428.21L.017,88.949A.349.349,0,0,0,.034,89.2ZM2.328,84.29l1.486.509L2.253,89.356.767,88.847Z" transform="translate(0 -83.528)" fill="#fff"/>
      <path id="Caminho_2747" data-name="Caminho 2747" d="M95.695,93.138a.984.984,0,0,0,.852.55,1.012,1.012,0,0,0,.1.431.968.968,0,0,0,.567.5.964.964,0,0,0,.75-.048l.176-.088a1.018,1.018,0,0,0,.092.305.968.968,0,0,0,.567.5.964.964,0,0,0,.75-.048l3.859-1.89a9.935,9.935,0,0,0,2.362-1.612l.862-.791,1.972-.964a.334.334,0,0,0,.153-.448l-2.4-4.931a.337.337,0,0,0-.451-.153l-2.016.988a.334.334,0,0,0-.153.448l2.3,4.7-.713.655a9.375,9.375,0,0,1-2.2,1.5l-3.859,1.89a.312.312,0,0,1-.241.014.319.319,0,0,1-.18-.16.312.312,0,0,1-.014-.241.32.32,0,0,1,.16-.18l2.158-1.055a.335.335,0,0,0-.3-.6l-2.158,1.055h0l-1.018.5a.312.312,0,0,1-.241.014.32.32,0,0,1-.18-.16.312.312,0,0,1-.014-.241.32.32,0,0,1,.16-.18l3.1-1.514a.335.335,0,0,0-.3-.6l-3.479,1.7a.319.319,0,0,1-.421-.143.312.312,0,0,1-.014-.241.32.32,0,0,1,.16-.18l1.371-.672h0l1.782-.872a.335.335,0,0,0-.3-.6l-2.773,1.357a.314.314,0,1,1-.278-.563l1.473-.719a.335.335,0,1,0-.3-.6l-1.473.719a.986.986,0,0,0-.173,1.663A.97.97,0,0,0,95.695,93.138Zm8.786-7.245,1.412-.692,2.118,4.327-1.412.692Z" transform="translate(-92.162 -84.385)" fill="#fff"/>
    </g>
  </g>
</svg>
