<svg xmlns="http://www.w3.org/2000/svg" width="5.529" height="15.504" viewBox="0 0 5.529 15.504">
  <g id="glosa" transform="translate(175.828 15.304) rotate(180)">
    <g id="Grupo_2689" data-name="Grupo 2689" transform="translate(170.499)">
      <path id="União_190" data-name="União 190" d="M0,10.234V.434A.345.345,0,0,1,.013.341V0H5.129V10.234ZM.683,9.5H4.446V.64H.683Z" transform="translate(0 4.87)" fill="#fff" stroke="#fff" stroke-width="0.4"/>
      <path id="Caminho_2750" data-name="Caminho 2750" d="M170.5,1.343V2.872a.34.34,0,0,0,.342.342h4.442a.34.34,0,0,0,.342-.342V1.343A1.344,1.344,0,0,0,174.283,0h-2.44A1.344,1.344,0,0,0,170.5,1.343Zm4.445,0V2.53h-3.762V1.343a.661.661,0,0,1,.659-.659h2.44A.66.66,0,0,1,174.945,1.343Z" transform="translate(-170.5)" fill="#fff" stroke="#fff" stroke-width="0.4"/>
    </g>
  </g>
</svg>
