<svg xmlns="http://www.w3.org/2000/svg" width="36.755" height="35.675" viewBox="0 0 36.755 35.675">
  <g id="nota_fatura" transform="translate(9945.509 -6669.435)">
    <g id="add" transform="translate(-9945.258 6669.683)">
      <g id="Grupo_2681" data-name="Grupo 2681" transform="translate(0 0)">
        <path id="Subtração_8" data-name="Subtração 8" d="M24.792,35.177H.64c-.353,0-.641-.4-.641-.887V.888C0,.4.287,0,.64,0H24.792c.353,0,.641.4.641.886V16.452H24.152V1.514H1.282V33.53H24.151V30.114h1.281v4.177C25.433,34.78,25.146,35.177,24.792,35.177Z" fill="#fff" stroke="#fff" stroke-width="0.5"/>
        <path id="Caminho_2731" data-name="Caminho 2731" d="M.182,7.207H7.025a.182.182,0,0,0,0-.363H.363V.182A.182.182,0,0,0,0,.182V7.025A.181.181,0,0,0,.182,7.207Z" transform="translate(30.418 27.706) rotate(-135)" fill="#fff" stroke="#fff" stroke-width="1.4"/>
        <rect id="Retângulo_1411" data-name="Retângulo 1411" width="11" height="2" rx="1" transform="translate(18.258 21.193)" fill="#fff"/>
      </g>
    </g>
  </g>
</svg>
