<svg id="painel" xmlns="http://www.w3.org/2000/svg" width="24" height="23.785" viewBox="0 0 24 23.785">
  <g id="Grupo_2671" data-name="Grupo 2671" transform="translate(0 0)">
    <path id="Caminho_2672" data-name="Caminho 2672" d="M5.745,220H.486a.484.484,0,0,0-.486.486v12.178a.484.484,0,0,0,.486.486H5.745a.484.484,0,0,0,.486-.486V220.486A.484.484,0,0,0,5.745,220Zm-.486,12.178H.972V220.972H5.264v11.206Z" transform="translate(0 -209.366)" fill="#fff"/>
    <path id="Caminho_2673" data-name="Caminho 2673" d="M187.25,2.2h-5.264a.484.484,0,0,0-.486.485v22.81a.484.484,0,0,0,.486.485h5.264a.484.484,0,0,0,.486-.485V2.685A.487.487,0,0,0,187.25,2.2Zm-.486,22.815h-4.292V3.17h4.292Z" transform="translate(-172.618 -2.2)" fill="#fff"/>
    <path id="Caminho_2674" data-name="Caminho 2674" d="M368.845,169.155a.484.484,0,0,0,.486-.486V153.186a.484.484,0,0,0-.486-.486h-5.259a.484.484,0,0,0-.486.486v15.478a.484.484,0,0,0,.486.486h5.259Zm-4.773-15.483h4.292v14.511h-4.292Z" transform="translate(-345.331 -145.371)" fill="#fff"/>
  </g>
</svg>
