<svg xmlns="http://www.w3.org/2000/svg" width="13.24" height="11.871" viewBox="0 0 13.24 11.871">
  <g id="parametros_contratuais" transform="translate(-11.55 -15.431)">
    <g id="Grupo_2684" data-name="Grupo 2684" transform="translate(11.75 19.952)">
      <path id="Caminho_2743" data-name="Caminho 2743" d="M12.568,1.263H5.843A1.3,1.3,0,0,0,4.852.272h0a.272.272,0,1,0-.545,0h0a1.291,1.291,0,0,0-.991.991H.272a.272.272,0,1,0,0,.545H3.316a1.292,1.292,0,0,0,2.526,0h6.725a.272.272,0,1,0,0-.545ZM4.58,2.281a.749.749,0,1,1,.748-.749A.749.749,0,0,1,4.58,2.281Z" transform="translate(12.84 2.829) rotate(180)" fill="#fff" stroke="#fff" stroke-width="0.4"/>
    </g>
    <g id="Grupo_2686" data-name="Grupo 2686" transform="translate(11.75 24.272)">
      <path id="Caminho_2743-2" data-name="Caminho 2743" d="M12.568,1.263H7.683A1.3,1.3,0,0,0,6.692.272h0a.272.272,0,1,0-.545,0h0a1.291,1.291,0,0,0-.991.991H.272a.272.272,0,1,0,0,.545H5.157a1.292,1.292,0,0,0,2.526,0h4.884a.272.272,0,1,0,0-.545ZM6.42,2.281a.749.749,0,1,1,.748-.749A.749.749,0,0,1,6.42,2.281Z" transform="translate(12.84 2.829) rotate(180)" fill="#fff" stroke="#fff" stroke-width="0.4"/>
    </g>
    <g id="Grupo_2685" data-name="Grupo 2685" transform="translate(24.59 18.46) rotate(180)">
      <path id="Caminho_2743-3" data-name="Caminho 2743" d="M12.568,1.263H7.683A1.3,1.3,0,0,0,6.692.272h0a.272.272,0,1,0-.545,0h0a1.291,1.291,0,0,0-.991.991H.272a.272.272,0,1,0,0,.545H5.157a1.292,1.292,0,0,0,2.526,0h4.884a.272.272,0,1,0,0-.545ZM6.42,2.281a.749.749,0,1,1,.748-.749A.749.749,0,0,1,6.42,2.281Z" transform="translate(12.84 2.829) rotate(180)" fill="#fff" stroke="#fff" stroke-width="0.4"/>
    </g>
  </g>
</svg>
