<svg xmlns="http://www.w3.org/2000/svg" width="12.693" height="18.08" viewBox="0 0 12.693 18.08">
  <g id="perfil" transform="translate(-73)">
    <g id="Grupo_2682" data-name="Grupo 2682" transform="translate(73)">
      <path id="Caminho_2736" data-name="Caminho 2736" d="M74.786,10.756a6.644,6.644,0,1,0-.081-.089A.374.374,0,0,0,74.786,10.756Zm4.561,1.207a5.592,5.592,0,0,1-3.627-1.332A3.965,3.965,0,0,0,78.2,8.977a2.674,2.674,0,0,0,1.052.214h.085a2.687,2.687,0,0,0,1.129-.251c.21.443.808,1.129,2.5,1.69A5.565,5.565,0,0,1,79.346,11.962ZM77.295,5.173V5.151a1.9,1.9,0,0,1,1.941-2.074h.118a1.9,1.9,0,0,1,1.941,2.074v.022a4.134,4.134,0,0,1-.646,2.73,1.706,1.706,0,0,1-1.339.557h-.022A1.713,1.713,0,0,1,77.948,7.9,4.126,4.126,0,0,1,77.295,5.173ZM79.346.731a5.613,5.613,0,0,1,4.217,9.32c-2.384-.694-2.476-1.535-2.476-1.546v.018h-.026c.044-.044.089-.089.133-.137A4.792,4.792,0,0,0,82.022,5.1a2.627,2.627,0,0,0-2.668-2.76h-.118A2.625,2.625,0,0,0,76.568,5.1a4.82,4.82,0,0,0,.827,3.284c.059.066.122.129.184.188-.077.214-.469.893-2.45,1.472A5.611,5.611,0,0,1,79.346.731Z" transform="translate(-73)" fill="#fff"/>
      <path id="Caminho_2737" data-name="Caminho 2737" d="M109.865,401.431h9.265a.365.365,0,0,0,0-.731h-9.265a.364.364,0,0,0-.365.365A.369.369,0,0,0,109.865,401.431Z" transform="translate(-108.153 -385.915)" fill="#fff"/>
      <path id="Caminho_2738" data-name="Caminho 2738" d="M160.438,470.565a.364.364,0,0,0-.365-.365h-6.007a.365.365,0,0,0,0,.731h6.011A.365.365,0,0,0,160.438,470.565Z" transform="translate(-150.722 -452.851)" fill="#fff"/>
    </g>
  </g>
</svg>
