<svg xmlns="http://www.w3.org/2000/svg" width="17.813" height="17.801" viewBox="0 0 17.813 17.801">
  <g id="reprocessar" transform="translate(9982.206 -6022.234)">
    <path id="Caminho_2762" data-name="Caminho 2762" d="M.512,11.651a.358.358,0,0,0,.33.234.341.341,0,0,0,.117-.021.355.355,0,0,0,.213-.451,8,8,0,0,1,13.114-8.43l-.9.011a.352.352,0,0,0,0,.7h0l1.747-.021a.353.353,0,0,0,.249-.107.361.361,0,0,0,.1-.249l-.021-1.747a.348.348,0,0,0-.355-.348.352.352,0,0,0-.348.355l.011.9A8.7,8.7,0,0,0,.512,11.651Z" transform="translate(-9982 6022.432)" fill="#fff" stroke="#fff" stroke-width="0.4"/>
    <path id="Caminho_2763" data-name="Caminho 2763" d="M66.317,164.518a8.006,8.006,0,0,1-11.3.135l.9-.011a.352.352,0,0,0,0-.7h0l-1.747.021a.352.352,0,0,0-.348.355l.021,1.747a.354.354,0,0,0,.352.348h0a.352.352,0,0,0,.348-.355l-.011-.9a8.7,8.7,0,0,0,14.265-9.165.353.353,0,0,0-.664.238A7.934,7.934,0,0,1,66.317,164.518Z" transform="translate(-10033.899 5872.207)" fill="#fff" stroke="#fff" stroke-width="0.4"/>
  </g>
</svg>
