<svg id="Grupo_2390" data-name="Grupo 2390" xmlns="http://www.w3.org/2000/svg" xmlns:xlink="http://www.w3.org/1999/xlink" width="11.243" height="11.265" viewBox="0 0 11.243 11.265">
  <defs>
    <clipPath id="clip-path">
      <path id="Caminho_2497" data-name="Caminho 2497" d="M0-361.81H11.243v11.265H0Z" transform="translate(0 361.81)" fill="none"/>
    </clipPath>
  </defs>
  <g id="Grupo_2387" data-name="Grupo 2387" transform="translate(6.62 6.597)">
    <path id="Caminho_2495" data-name="Caminho 2495" d="M0-12.332l.692.805-.3.3,3.17,3.17L4.623-9.117l-3.17-3.17-.268.268L.4-12.728Z" transform="translate(0 12.728)" fill="#fff"/>
  </g>
  <g id="Grupo_2389" data-name="Grupo 2389" transform="translate(0 0)" clip-path="url(#clip-path)">
    <g id="Grupo_2388" data-name="Grupo 2388" transform="translate(0 0)">
      <path id="Caminho_2496" data-name="Caminho 2496" d="M-195.714-195.714a3.082,3.082,0,0,1-4.359,0,3.082,3.082,0,0,1,0-4.359,3.082,3.082,0,0,1,4.359,0,3.082,3.082,0,0,1,0,4.359M-200.8-200.8a4.11,4.11,0,0,0,0,5.812,4.11,4.11,0,0,0,5.812,0,4.11,4.11,0,0,0,0-5.812,4.11,4.11,0,0,0-5.812,0" transform="translate(202.004 202.004)" fill="#fff"/>
    </g>
  </g>
</svg>
