<svg id="unidade" xmlns="http://www.w3.org/2000/svg" width="16.695" height="18.003" viewBox="0 0 16.695 18.003">
  <g id="Grupo_2672" data-name="Grupo 2672" transform="translate(0)">
    <path id="Caminho_2675" data-name="Caminho 2675" d="M34.131,4.459H28.559V.364A.362.362,0,0,0,28.195,0H18.164A.362.362,0,0,0,17.8.364V17.639a.362.362,0,0,0,.364.364H34.131a.362.362,0,0,0,.364-.364V4.822A.362.362,0,0,0,34.131,4.459Zm-6.3.364V17.279h-9.3V.728h9.3V4.822Zm5.936,12.453H28.559V5.183h5.208Z" transform="translate(-17.8)" fill="#fff"/>
    <path id="Caminho_2676" data-name="Caminho 2676" d="M339.564,172.228h2.371a.364.364,0,0,0,0-.728h-2.371a.364.364,0,1,0,0,.728Z" transform="translate(-327.387 -165.196)" fill="#fff"/>
    <path id="Caminho_2677" data-name="Caminho 2677" d="M339.564,221.928h2.371a.364.364,0,0,0,0-.728h-2.371a.364.364,0,1,0,0,.728Z" transform="translate(-327.387 -213.07)" fill="#fff"/>
    <path id="Caminho_2678" data-name="Caminho 2678" d="M339.564,271.528h2.371a.364.364,0,0,0,0-.728h-2.371a.364.364,0,1,0,0,.728Z" transform="translate(-327.387 -260.846)" fill="#fff"/>
    <path id="Caminho_2679" data-name="Caminho 2679" d="M339.564,321.228h2.371a.364.364,0,0,0,0-.728h-2.371a.364.364,0,1,0,0,.728Z" transform="translate(-327.387 -308.72)" fill="#fff"/>
    <path id="Caminho_2680" data-name="Caminho 2680" d="M339.564,370.828h2.371a.364.364,0,0,0,0-.728h-2.371a.364.364,0,1,0,0,.728Z" transform="translate(-327.387 -356.496)" fill="#fff"/>
    <path id="Caminho_2681" data-name="Caminho 2681" d="M339.564,420.528h2.371a.364.364,0,0,0,0-.728h-2.371a.364.364,0,1,0,0,.728Z" transform="translate(-327.387 -404.37)" fill="#fff"/>
    <path id="Caminho_2682" data-name="Caminho 2682" d="M73.964,56.833a.362.362,0,0,0,.364-.364v-.8a.364.364,0,0,0-.728,0v.8A.362.362,0,0,0,73.964,56.833Z" transform="translate(-71.549 -53.267)" fill="#fff"/>
    <path id="Caminho_2683" data-name="Caminho 2683" d="M127.764,56.833a.362.362,0,0,0,.364-.364v-.8a.364.364,0,0,0-.728,0v.8A.362.362,0,0,0,127.764,56.833Z" transform="translate(-123.372 -53.267)" fill="#fff"/>
    <path id="Caminho_2684" data-name="Caminho 2684" d="M181.464,56.833a.362.362,0,0,0,.364-.364v-.8a.364.364,0,0,0-.728,0v.8A.365.365,0,0,0,181.464,56.833Z" transform="translate(-175.098 -53.267)" fill="#fff"/>
    <path id="Caminho_2685" data-name="Caminho 2685" d="M235.264,56.833a.362.362,0,0,0,.364-.364v-.8a.364.364,0,1,0-.728,0v.8A.362.362,0,0,0,235.264,56.833Z" transform="translate(-226.92 -53.267)" fill="#fff"/>
    <path id="Caminho_2686" data-name="Caminho 2686" d="M73.964,124.536a.362.362,0,0,0,.364-.364v-.809a.364.364,0,0,0-.728,0v.809A.365.365,0,0,0,73.964,124.536Z" transform="translate(-71.549 -118.479)" fill="#fff"/>
    <path id="Caminho_2687" data-name="Caminho 2687" d="M127.764,124.536a.362.362,0,0,0,.364-.364v-.809a.364.364,0,0,0-.728,0v.809A.365.365,0,0,0,127.764,124.536Z" transform="translate(-123.372 -118.479)" fill="#fff"/>
    <path id="Caminho_2688" data-name="Caminho 2688" d="M181.464,124.536a.362.362,0,0,0,.364-.364v-.809a.364.364,0,0,0-.728,0v.809A.367.367,0,0,0,181.464,124.536Z" transform="translate(-175.098 -118.479)" fill="#fff"/>
    <path id="Caminho_2689" data-name="Caminho 2689" d="M235.264,124.536a.362.362,0,0,0,.364-.364v-.809a.364.364,0,1,0-.728,0v.809A.365.365,0,0,0,235.264,124.536Z" transform="translate(-226.92 -118.479)" fill="#fff"/>
    <path id="Caminho_2690" data-name="Caminho 2690" d="M73.964,192.333a.362.362,0,0,0,.364-.364v-.8a.364.364,0,1,0-.728,0v.8A.362.362,0,0,0,73.964,192.333Z" transform="translate(-71.549 -183.787)" fill="#fff"/>
    <path id="Caminho_2691" data-name="Caminho 2691" d="M127.764,192.333a.362.362,0,0,0,.364-.364v-.8a.364.364,0,1,0-.728,0v.8A.362.362,0,0,0,127.764,192.333Z" transform="translate(-123.372 -183.787)" fill="#fff"/>
    <path id="Caminho_2692" data-name="Caminho 2692" d="M181.464,192.333a.362.362,0,0,0,.364-.364v-.8a.364.364,0,0,0-.728,0v.8A.365.365,0,0,0,181.464,192.333Z" transform="translate(-175.098 -183.787)" fill="#fff"/>
    <path id="Caminho_2693" data-name="Caminho 2693" d="M235.264,192.333a.362.362,0,0,0,.364-.364v-.8a.364.364,0,1,0-.728,0v.8A.362.362,0,0,0,235.264,192.333Z" transform="translate(-226.92 -183.787)" fill="#fff"/>
    <path id="Caminho_2694" data-name="Caminho 2694" d="M73.964,260.133a.362.362,0,0,0,.364-.364v-.8a.364.364,0,1,0-.728,0v.8A.365.365,0,0,0,73.964,260.133Z" transform="translate(-71.549 -249.095)" fill="#fff"/>
    <path id="Caminho_2695" data-name="Caminho 2695" d="M127.764,260.133a.362.362,0,0,0,.364-.364v-.8a.364.364,0,1,0-.728,0v.8A.365.365,0,0,0,127.764,260.133Z" transform="translate(-123.372 -249.095)" fill="#fff"/>
    <path id="Caminho_2696" data-name="Caminho 2696" d="M181.464,260.133a.362.362,0,0,0,.364-.364v-.8a.364.364,0,0,0-.728,0v.8A.367.367,0,0,0,181.464,260.133Z" transform="translate(-175.098 -249.095)" fill="#fff"/>
    <path id="Caminho_2697" data-name="Caminho 2697" d="M235.264,260.133a.362.362,0,0,0,.364-.364v-.8a.364.364,0,1,0-.728,0v.8A.365.365,0,0,0,235.264,260.133Z" transform="translate(-226.92 -249.095)" fill="#fff"/>
    <path id="Caminho_2698" data-name="Caminho 2698" d="M73.964,327.833a.362.362,0,0,0,.364-.364v-.805a.364.364,0,0,0-.728,0v.805A.362.362,0,0,0,73.964,327.833Z" transform="translate(-71.549 -314.307)" fill="#fff"/>
    <path id="Caminho_2699" data-name="Caminho 2699" d="M127.764,327.833a.362.362,0,0,0,.364-.364v-.805a.364.364,0,0,0-.728,0v.805A.362.362,0,0,0,127.764,327.833Z" transform="translate(-123.372 -314.307)" fill="#fff"/>
    <path id="Caminho_2700" data-name="Caminho 2700" d="M181.464,327.833a.362.362,0,0,0,.364-.364v-.805a.364.364,0,0,0-.728,0v.805A.365.365,0,0,0,181.464,327.833Z" transform="translate(-175.098 -314.307)" fill="#fff"/>
    <path id="Caminho_2701" data-name="Caminho 2701" d="M235.264,327.833a.362.362,0,0,0,.364-.364v-.805a.364.364,0,0,0-.728,0v.805A.362.362,0,0,0,235.264,327.833Z" transform="translate(-226.92 -314.307)" fill="#fff"/>
    <path id="Caminho_2702" data-name="Caminho 2702" d="M73.964,395.536a.362.362,0,0,0,.364-.364v-.809a.364.364,0,1,0-.728,0v.809A.365.365,0,0,0,73.964,395.536Z" transform="translate(-71.549 -379.518)" fill="#fff"/>
    <path id="Caminho_2703" data-name="Caminho 2703" d="M127.764,395.536a.362.362,0,0,0,.364-.364v-.809a.364.364,0,1,0-.728,0v.809A.365.365,0,0,0,127.764,395.536Z" transform="translate(-123.372 -379.518)" fill="#fff"/>
    <path id="Caminho_2704" data-name="Caminho 2704" d="M181.464,395.536a.362.362,0,0,0,.364-.364v-.809a.364.364,0,0,0-.728,0v.809A.367.367,0,0,0,181.464,395.536Z" transform="translate(-175.098 -379.518)" fill="#fff"/>
    <path id="Caminho_2705" data-name="Caminho 2705" d="M235.264,395.536a.362.362,0,0,0,.364-.364v-.809a.364.364,0,1,0-.728,0v.809A.365.365,0,0,0,235.264,395.536Z" transform="translate(-226.92 -379.518)" fill="#fff"/>
  </g>
</svg>
