<svg xmlns="http://www.w3.org/2000/svg" width="7.273" height="13.113" viewBox="0 0 7.273 13.113">
  <g id="user-14" transform="translate(-26.448 -57.907)">
    <g id="Grupo_2678" data-name="Grupo 2678" transform="translate(26.448 57.907)">
      <path id="Caminho_2718" data-name="Caminho 2718" d="M203.687,328.2a.8.8,0,0,0-.8.8v1.053H202.8a2.746,2.746,0,1,0,0,5.492h1.782a1.142,1.142,0,1,1,0,2.284h-3.191a.8.8,0,1,0,0,1.6h1.5v1.077a.8.8,0,0,0,1.6,0v-1.077h.089a2.746,2.746,0,1,0,0-5.492H202.8a1.142,1.142,0,1,1,0-2.284h3.135a.8.8,0,1,0,0-1.6h-1.442V329A.8.8,0,0,0,203.687,328.2Z" transform="translate(-200.05 -328.2)" fill="#fff"/>
    </g>
  </g>
</svg>
