<svg id="usuária" xmlns="http://www.w3.org/2000/svg" width="16.725" height="17.998" viewBox="0 0 16.725 17.998">
  <g id="Grupo_2677" data-name="Grupo 2677" transform="translate(0)">
    <path id="Caminho_2715" data-name="Caminho 2715" d="M56,13.811a26.443,26.443,0,0,0-4.591-2.967v-2.8a1.871,1.871,0,0,0,.657-1.428V3.351A3.353,3.353,0,0,0,48.713,0h-.706a3.353,3.353,0,0,0-3.351,3.351V6.624a1.871,1.871,0,0,0,.657,1.428v2.8a26.443,26.443,0,0,0-4.591,2.967A1.98,1.98,0,0,0,40,15.354v2.241a.4.4,0,0,0,.808,0V15.354a1.178,1.178,0,0,1,.429-.914A25.61,25.61,0,0,1,45.816,11.5a.541.541,0,0,0,.306-.494V7.852a.405.405,0,0,0-.18-.335,1.075,1.075,0,0,1-.478-.89V3.351A2.546,2.546,0,0,1,48.007.808h.706a2.546,2.546,0,0,1,2.543,2.543V6.624a1.064,1.064,0,0,1-.478.89.4.4,0,0,0-.18.335V11a.545.545,0,0,0,.31.494,25.509,25.509,0,0,1,4.579,2.938,1.172,1.172,0,0,1,.429.914V17.59a.4.4,0,1,0,.808,0V15.35A1.984,1.984,0,0,0,56,13.811Z" transform="translate(-40)" fill="#fff"/>
  </g>
</svg>
